G04 EAGLE Gerber RS-274X export*
G75*
%MOMM*%
%FSLAX34Y34*%
%LPD*%
%INSolderpaste Top*%
%IPPOS*%
%AMOC8*
5,1,8,0,0,1.08239X$1,22.5*%
G01*
G04 Define Apertures*
%ADD10R,1.400000X1.050000*%
%ADD11R,0.900000X0.700000*%
%ADD12R,1.400000X1.400000*%
%ADD13R,0.700000X0.900000*%
%ADD14R,2.200000X2.000000*%
%ADD15R,0.800000X0.800000*%
%ADD16R,1.200000X0.600000*%
%ADD17R,0.940000X0.970000*%
%ADD18R,0.970000X0.940000*%
%ADD19R,0.900000X0.800000*%
%ADD20R,1.150000X0.800000*%
%ADD21R,0.800000X0.900000*%
%ADD22R,0.900000X0.600000*%
%ADD23R,0.300000X0.800000*%
%ADD24R,0.400000X0.800000*%
%ADD25R,1.150000X0.300000*%
%ADD26R,2.000000X2.180000*%
%ADD27R,2.000000X1.200000*%
%ADD28R,1.350000X0.600000*%
%ADD29R,1.200000X1.800000*%
%ADD30R,1.900000X1.400000*%
%ADD31R,1.500000X0.700000*%
%ADD32R,0.127000X0.127000*%
%ADD33R,1.500000X3.600000*%
%ADD34R,0.500000X1.050000*%
%ADD35C,0.125000*%
%ADD36R,1.168400X1.600200*%
%ADD37R,1.010000X1.460000*%
%ADD38C,0.110000*%
%ADD39R,1.200000X0.550000*%
%ADD40C,0.147500*%
%ADD41R,0.820000X0.560000*%
%ADD42C,0.067500*%
%ADD43R,0.900000X1.500000*%
D10*
X506800Y1096590D03*
X471800Y1096590D03*
X471800Y1081590D03*
X506800Y1081590D03*
D11*
X1491700Y52100D03*
X1491700Y65100D03*
X607700Y1077100D03*
X607700Y1090100D03*
D12*
X943600Y485600D03*
X943600Y463600D03*
D11*
X1220500Y518000D03*
X1220500Y531000D03*
D13*
X1152800Y400700D03*
X1165800Y400700D03*
D11*
X1295300Y415200D03*
X1295300Y428200D03*
X1511700Y53900D03*
X1511700Y66900D03*
D13*
X1157100Y567500D03*
X1170100Y567500D03*
D14*
X1252000Y409100D03*
X1252000Y439100D03*
D11*
X1046100Y325600D03*
X1046100Y338600D03*
D13*
X1479400Y449500D03*
X1492400Y449500D03*
D11*
X204900Y1072500D03*
X204900Y1085500D03*
D13*
X1480500Y461500D03*
X1493500Y461500D03*
D11*
X441700Y1069700D03*
X441700Y1082700D03*
D13*
X883700Y267100D03*
X896700Y267100D03*
D11*
X913700Y467500D03*
X913700Y480500D03*
D13*
X138300Y985300D03*
X151300Y985300D03*
D10*
X657100Y1096590D03*
X622100Y1096590D03*
X622100Y1081590D03*
X657100Y1081590D03*
D15*
X1216000Y568700D03*
X1201000Y568700D03*
D11*
X500100Y884400D03*
X500100Y897400D03*
D16*
X1473500Y500200D03*
X1473500Y490700D03*
X1473500Y481200D03*
X1498500Y481200D03*
X1498500Y490700D03*
X1498500Y500200D03*
D17*
X397300Y514900D03*
X397300Y529900D03*
D18*
X122700Y450700D03*
X137700Y450700D03*
X360000Y532800D03*
X375000Y532800D03*
D19*
X1155200Y422900D03*
X1155200Y443900D03*
D20*
X975800Y278800D03*
X1010800Y278800D03*
X976200Y316800D03*
X1011200Y316800D03*
X880600Y366800D03*
X915600Y366800D03*
D17*
X473300Y357500D03*
X473300Y372500D03*
D21*
X839400Y622800D03*
X860400Y622800D03*
D17*
X501300Y357300D03*
X501300Y372300D03*
X529300Y359100D03*
X529300Y374100D03*
D11*
X972100Y184000D03*
X972100Y197000D03*
X855300Y181600D03*
X855300Y194600D03*
X682700Y123600D03*
X682700Y110600D03*
D13*
X642000Y144700D03*
X655000Y144700D03*
D11*
X958100Y184400D03*
X958100Y197400D03*
X942100Y184800D03*
X942100Y197800D03*
X926500Y183600D03*
X926500Y196600D03*
X908500Y182700D03*
X908500Y195700D03*
X890500Y181800D03*
X890500Y194800D03*
X872500Y180900D03*
X872500Y193900D03*
D22*
X451700Y904200D03*
X451700Y894700D03*
X451700Y885200D03*
X479700Y885200D03*
X479700Y904200D03*
X1190100Y444200D03*
X1190100Y434700D03*
X1190100Y425200D03*
X1218100Y425200D03*
X1218100Y444200D03*
D23*
X953900Y150900D03*
X948900Y150900D03*
X943900Y150900D03*
X938900Y150900D03*
X933900Y150900D03*
X928900Y150900D03*
X923900Y150900D03*
X918900Y150900D03*
X913900Y150900D03*
X908900Y150900D03*
X903900Y150900D03*
X898900Y150900D03*
X893900Y150900D03*
X888900Y150900D03*
X883900Y150900D03*
X878900Y150900D03*
X873900Y150900D03*
X868900Y150900D03*
X863900Y150900D03*
X858900Y150900D03*
X853900Y150900D03*
X848900Y150900D03*
X843900Y150900D03*
X838900Y150900D03*
D24*
X963900Y125900D03*
X828900Y125900D03*
D25*
X1625180Y512100D03*
X1625180Y520100D03*
X1625180Y533100D03*
X1625180Y543100D03*
X1625180Y548100D03*
X1625180Y558100D03*
X1625180Y571100D03*
X1625180Y579100D03*
X1625180Y576100D03*
X1625180Y568100D03*
X1625180Y563100D03*
X1625180Y553100D03*
X1625180Y538100D03*
X1625180Y528100D03*
X1625180Y523100D03*
X1625180Y515100D03*
D26*
X1670230Y494500D03*
X1670230Y596700D03*
X1630930Y494500D03*
X1630930Y596700D03*
D27*
X1691840Y162800D03*
X1691840Y218800D03*
D28*
X1655090Y175800D03*
X1655090Y185800D03*
X1655090Y195800D03*
X1655090Y205800D03*
D29*
X153500Y853824D03*
X153500Y910824D03*
D30*
X11000Y823824D03*
X21000Y955324D03*
D31*
X49500Y871824D03*
X53500Y882824D03*
X49500Y893824D03*
X47500Y904824D03*
X49500Y915824D03*
X47500Y926824D03*
X49500Y937824D03*
X49500Y948824D03*
D29*
X153500Y882324D03*
X153500Y939324D03*
D32*
X875840Y314500D03*
X921560Y314500D03*
D33*
X1443900Y418000D03*
X1488900Y418000D03*
D19*
X847600Y287600D03*
X847600Y268600D03*
X868600Y278100D03*
D21*
X1317600Y491600D03*
X1336600Y491600D03*
X1327100Y512600D03*
D34*
X714700Y197900D03*
X727700Y197900D03*
X721200Y218900D03*
D11*
X207100Y457300D03*
X207100Y444300D03*
X1471300Y49800D03*
X1471300Y62800D03*
D13*
X843600Y601900D03*
X856600Y601900D03*
D11*
X82900Y992100D03*
X82900Y1005100D03*
X1295700Y568300D03*
X1295700Y581300D03*
X1129600Y428700D03*
X1129600Y441700D03*
X756900Y204900D03*
X756900Y217900D03*
X1534500Y52300D03*
X1534500Y65300D03*
X916100Y570000D03*
X916100Y583000D03*
X1517700Y484500D03*
X1517700Y497500D03*
X1423300Y473600D03*
X1423300Y486600D03*
D13*
X1191400Y552300D03*
X1204400Y552300D03*
D11*
X830900Y268900D03*
X830900Y281900D03*
D13*
X715300Y175100D03*
X728300Y175100D03*
D11*
X114900Y992900D03*
X114900Y1005900D03*
X532900Y318100D03*
X532900Y331100D03*
X502900Y319300D03*
X502900Y332300D03*
D13*
X108500Y387100D03*
X121500Y387100D03*
D11*
X472900Y319700D03*
X472900Y332700D03*
D10*
X258000Y1096590D03*
X223000Y1096590D03*
X223000Y1081590D03*
X258000Y1081590D03*
D11*
X521300Y1070700D03*
X521300Y1083700D03*
D13*
X884300Y451600D03*
X871300Y451600D03*
D11*
X671600Y1076400D03*
X671600Y1089400D03*
D13*
G36*
X802654Y279331D02*
X809652Y279404D01*
X809746Y270405D01*
X802748Y270332D01*
X802654Y279331D01*
G37*
G36*
X789654Y279195D02*
X796652Y279268D01*
X796746Y270269D01*
X789748Y270196D01*
X789654Y279195D01*
G37*
D11*
X274100Y1073200D03*
X274100Y1086200D03*
D35*
X1515525Y148325D02*
X1524435Y148325D01*
X1515525Y148325D02*
X1515525Y152075D01*
X1524435Y152075D01*
X1524435Y148325D01*
X1524435Y149512D02*
X1515525Y149512D01*
X1515525Y150699D02*
X1524435Y150699D01*
X1524435Y151886D02*
X1515525Y151886D01*
X1515525Y140325D02*
X1524435Y140325D01*
X1515525Y140325D02*
X1515525Y144075D01*
X1524435Y144075D01*
X1524435Y140325D01*
X1524435Y141512D02*
X1515525Y141512D01*
X1515525Y142699D02*
X1524435Y142699D01*
X1524435Y143886D02*
X1515525Y143886D01*
X1515525Y132325D02*
X1524435Y132325D01*
X1515525Y132325D02*
X1515525Y136075D01*
X1524435Y136075D01*
X1524435Y132325D01*
X1524435Y133512D02*
X1515525Y133512D01*
X1515525Y134699D02*
X1524435Y134699D01*
X1524435Y135886D02*
X1515525Y135886D01*
X1515525Y124325D02*
X1524435Y124325D01*
X1515525Y124325D02*
X1515525Y128075D01*
X1524435Y128075D01*
X1524435Y124325D01*
X1524435Y125512D02*
X1515525Y125512D01*
X1515525Y126699D02*
X1524435Y126699D01*
X1524435Y127886D02*
X1515525Y127886D01*
X1495275Y124125D02*
X1486365Y124125D01*
X1486365Y127875D01*
X1495275Y127875D01*
X1495275Y124125D01*
X1495275Y125312D02*
X1486365Y125312D01*
X1486365Y126499D02*
X1495275Y126499D01*
X1495275Y127686D02*
X1486365Y127686D01*
X1486365Y132325D02*
X1495275Y132325D01*
X1486365Y132325D02*
X1486365Y136075D01*
X1495275Y136075D01*
X1495275Y132325D01*
X1495275Y133512D02*
X1486365Y133512D01*
X1486365Y134699D02*
X1495275Y134699D01*
X1495275Y135886D02*
X1486365Y135886D01*
X1486365Y140325D02*
X1495275Y140325D01*
X1486365Y140325D02*
X1486365Y144075D01*
X1495275Y144075D01*
X1495275Y140325D01*
X1495275Y141512D02*
X1486365Y141512D01*
X1486365Y142699D02*
X1495275Y142699D01*
X1495275Y143886D02*
X1486365Y143886D01*
X1486365Y148325D02*
X1495275Y148325D01*
X1486365Y148325D02*
X1486365Y152075D01*
X1495275Y152075D01*
X1495275Y148325D01*
X1495275Y149512D02*
X1486365Y149512D01*
X1486365Y150699D02*
X1495275Y150699D01*
X1495275Y151886D02*
X1486365Y151886D01*
D36*
X637980Y117900D03*
X653220Y117900D03*
D37*
X363550Y611200D03*
X378250Y611200D03*
X363550Y592000D03*
X378250Y592000D03*
D38*
X336100Y619000D02*
X327800Y619000D01*
X327800Y622300D01*
X336100Y622300D01*
X336100Y619000D01*
X336100Y620045D02*
X327800Y620045D01*
X327800Y621090D02*
X336100Y621090D01*
X336100Y622135D02*
X327800Y622135D01*
X327800Y606300D02*
X336100Y606300D01*
X327800Y606300D02*
X327800Y609600D01*
X336100Y609600D01*
X336100Y606300D01*
X336100Y607345D02*
X327800Y607345D01*
X327800Y608390D02*
X336100Y608390D01*
X336100Y609435D02*
X327800Y609435D01*
X327800Y593600D02*
X336100Y593600D01*
X327800Y593600D02*
X327800Y596900D01*
X336100Y596900D01*
X336100Y593600D01*
X336100Y594645D02*
X327800Y594645D01*
X327800Y595690D02*
X336100Y595690D01*
X336100Y596735D02*
X327800Y596735D01*
X327800Y580900D02*
X336100Y580900D01*
X327800Y580900D02*
X327800Y584200D01*
X336100Y584200D01*
X336100Y580900D01*
X336100Y581945D02*
X327800Y581945D01*
X327800Y582990D02*
X336100Y582990D01*
X336100Y584035D02*
X327800Y584035D01*
X405700Y580900D02*
X414000Y580900D01*
X405700Y580900D02*
X405700Y584200D01*
X414000Y584200D01*
X414000Y580900D01*
X414000Y581945D02*
X405700Y581945D01*
X405700Y582990D02*
X414000Y582990D01*
X414000Y584035D02*
X405700Y584035D01*
X405700Y593600D02*
X414000Y593600D01*
X405700Y593600D02*
X405700Y596900D01*
X414000Y596900D01*
X414000Y593600D01*
X414000Y594645D02*
X405700Y594645D01*
X405700Y595690D02*
X414000Y595690D01*
X414000Y596735D02*
X405700Y596735D01*
X405700Y606300D02*
X414000Y606300D01*
X405700Y606300D02*
X405700Y609600D01*
X414000Y609600D01*
X414000Y606300D01*
X414000Y607345D02*
X405700Y607345D01*
X405700Y608390D02*
X414000Y608390D01*
X414000Y609435D02*
X405700Y609435D01*
X405700Y619000D02*
X414000Y619000D01*
X405700Y619000D02*
X405700Y622300D01*
X414000Y622300D01*
X414000Y619000D01*
X414000Y620045D02*
X405700Y620045D01*
X405700Y621090D02*
X414000Y621090D01*
X414000Y622135D02*
X405700Y622135D01*
D39*
X1258101Y549300D03*
X1258101Y558800D03*
X1258101Y568300D03*
X1232099Y568300D03*
X1232099Y549300D03*
D40*
X875237Y561537D02*
X875237Y580563D01*
X879663Y580563D01*
X879663Y561537D01*
X875237Y561537D01*
X875237Y562938D02*
X879663Y562938D01*
X879663Y564339D02*
X875237Y564339D01*
X875237Y565740D02*
X879663Y565740D01*
X879663Y567141D02*
X875237Y567141D01*
X875237Y568542D02*
X879663Y568542D01*
X879663Y569943D02*
X875237Y569943D01*
X875237Y571344D02*
X879663Y571344D01*
X879663Y572745D02*
X875237Y572745D01*
X875237Y574146D02*
X879663Y574146D01*
X879663Y575547D02*
X875237Y575547D01*
X875237Y576948D02*
X879663Y576948D01*
X879663Y578349D02*
X875237Y578349D01*
X875237Y579750D02*
X879663Y579750D01*
X862537Y580563D02*
X862537Y561537D01*
X862537Y580563D02*
X866963Y580563D01*
X866963Y561537D01*
X862537Y561537D01*
X862537Y562938D02*
X866963Y562938D01*
X866963Y564339D02*
X862537Y564339D01*
X862537Y565740D02*
X866963Y565740D01*
X866963Y567141D02*
X862537Y567141D01*
X862537Y568542D02*
X866963Y568542D01*
X866963Y569943D02*
X862537Y569943D01*
X862537Y571344D02*
X866963Y571344D01*
X866963Y572745D02*
X862537Y572745D01*
X862537Y574146D02*
X866963Y574146D01*
X866963Y575547D02*
X862537Y575547D01*
X862537Y576948D02*
X866963Y576948D01*
X866963Y578349D02*
X862537Y578349D01*
X862537Y579750D02*
X866963Y579750D01*
X849837Y580563D02*
X849837Y561537D01*
X849837Y580563D02*
X854263Y580563D01*
X854263Y561537D01*
X849837Y561537D01*
X849837Y562938D02*
X854263Y562938D01*
X854263Y564339D02*
X849837Y564339D01*
X849837Y565740D02*
X854263Y565740D01*
X854263Y567141D02*
X849837Y567141D01*
X849837Y568542D02*
X854263Y568542D01*
X854263Y569943D02*
X849837Y569943D01*
X849837Y571344D02*
X854263Y571344D01*
X854263Y572745D02*
X849837Y572745D01*
X849837Y574146D02*
X854263Y574146D01*
X854263Y575547D02*
X849837Y575547D01*
X849837Y576948D02*
X854263Y576948D01*
X854263Y578349D02*
X849837Y578349D01*
X849837Y579750D02*
X854263Y579750D01*
X837137Y580563D02*
X837137Y561537D01*
X837137Y580563D02*
X841563Y580563D01*
X841563Y561537D01*
X837137Y561537D01*
X837137Y562938D02*
X841563Y562938D01*
X841563Y564339D02*
X837137Y564339D01*
X837137Y565740D02*
X841563Y565740D01*
X841563Y567141D02*
X837137Y567141D01*
X837137Y568542D02*
X841563Y568542D01*
X841563Y569943D02*
X837137Y569943D01*
X837137Y571344D02*
X841563Y571344D01*
X841563Y572745D02*
X837137Y572745D01*
X837137Y574146D02*
X841563Y574146D01*
X841563Y575547D02*
X837137Y575547D01*
X837137Y576948D02*
X841563Y576948D01*
X841563Y578349D02*
X837137Y578349D01*
X837137Y579750D02*
X841563Y579750D01*
X824437Y580563D02*
X824437Y561537D01*
X824437Y580563D02*
X828863Y580563D01*
X828863Y561537D01*
X824437Y561537D01*
X824437Y562938D02*
X828863Y562938D01*
X828863Y564339D02*
X824437Y564339D01*
X824437Y565740D02*
X828863Y565740D01*
X828863Y567141D02*
X824437Y567141D01*
X824437Y568542D02*
X828863Y568542D01*
X828863Y569943D02*
X824437Y569943D01*
X824437Y571344D02*
X828863Y571344D01*
X828863Y572745D02*
X824437Y572745D01*
X824437Y574146D02*
X828863Y574146D01*
X828863Y575547D02*
X824437Y575547D01*
X824437Y576948D02*
X828863Y576948D01*
X828863Y578349D02*
X824437Y578349D01*
X824437Y579750D02*
X828863Y579750D01*
X811737Y580563D02*
X811737Y561537D01*
X811737Y580563D02*
X816163Y580563D01*
X816163Y561537D01*
X811737Y561537D01*
X811737Y562938D02*
X816163Y562938D01*
X816163Y564339D02*
X811737Y564339D01*
X811737Y565740D02*
X816163Y565740D01*
X816163Y567141D02*
X811737Y567141D01*
X811737Y568542D02*
X816163Y568542D01*
X816163Y569943D02*
X811737Y569943D01*
X811737Y571344D02*
X816163Y571344D01*
X816163Y572745D02*
X811737Y572745D01*
X811737Y574146D02*
X816163Y574146D01*
X816163Y575547D02*
X811737Y575547D01*
X811737Y576948D02*
X816163Y576948D01*
X816163Y578349D02*
X811737Y578349D01*
X811737Y579750D02*
X816163Y579750D01*
X799037Y580563D02*
X799037Y561537D01*
X799037Y580563D02*
X803463Y580563D01*
X803463Y561537D01*
X799037Y561537D01*
X799037Y562938D02*
X803463Y562938D01*
X803463Y564339D02*
X799037Y564339D01*
X799037Y565740D02*
X803463Y565740D01*
X803463Y567141D02*
X799037Y567141D01*
X799037Y568542D02*
X803463Y568542D01*
X803463Y569943D02*
X799037Y569943D01*
X799037Y571344D02*
X803463Y571344D01*
X803463Y572745D02*
X799037Y572745D01*
X799037Y574146D02*
X803463Y574146D01*
X803463Y575547D02*
X799037Y575547D01*
X799037Y576948D02*
X803463Y576948D01*
X803463Y578349D02*
X799037Y578349D01*
X799037Y579750D02*
X803463Y579750D01*
X786337Y580563D02*
X786337Y561537D01*
X786337Y580563D02*
X790763Y580563D01*
X790763Y561537D01*
X786337Y561537D01*
X786337Y562938D02*
X790763Y562938D01*
X790763Y564339D02*
X786337Y564339D01*
X786337Y565740D02*
X790763Y565740D01*
X790763Y567141D02*
X786337Y567141D01*
X786337Y568542D02*
X790763Y568542D01*
X790763Y569943D02*
X786337Y569943D01*
X786337Y571344D02*
X790763Y571344D01*
X790763Y572745D02*
X786337Y572745D01*
X786337Y574146D02*
X790763Y574146D01*
X790763Y575547D02*
X786337Y575547D01*
X786337Y576948D02*
X790763Y576948D01*
X790763Y578349D02*
X786337Y578349D01*
X786337Y579750D02*
X790763Y579750D01*
X786337Y487463D02*
X786337Y468437D01*
X786337Y487463D02*
X790763Y487463D01*
X790763Y468437D01*
X786337Y468437D01*
X786337Y469838D02*
X790763Y469838D01*
X790763Y471239D02*
X786337Y471239D01*
X786337Y472640D02*
X790763Y472640D01*
X790763Y474041D02*
X786337Y474041D01*
X786337Y475442D02*
X790763Y475442D01*
X790763Y476843D02*
X786337Y476843D01*
X786337Y478244D02*
X790763Y478244D01*
X790763Y479645D02*
X786337Y479645D01*
X786337Y481046D02*
X790763Y481046D01*
X790763Y482447D02*
X786337Y482447D01*
X786337Y483848D02*
X790763Y483848D01*
X790763Y485249D02*
X786337Y485249D01*
X786337Y486650D02*
X790763Y486650D01*
X799037Y487463D02*
X799037Y468437D01*
X799037Y487463D02*
X803463Y487463D01*
X803463Y468437D01*
X799037Y468437D01*
X799037Y469838D02*
X803463Y469838D01*
X803463Y471239D02*
X799037Y471239D01*
X799037Y472640D02*
X803463Y472640D01*
X803463Y474041D02*
X799037Y474041D01*
X799037Y475442D02*
X803463Y475442D01*
X803463Y476843D02*
X799037Y476843D01*
X799037Y478244D02*
X803463Y478244D01*
X803463Y479645D02*
X799037Y479645D01*
X799037Y481046D02*
X803463Y481046D01*
X803463Y482447D02*
X799037Y482447D01*
X799037Y483848D02*
X803463Y483848D01*
X803463Y485249D02*
X799037Y485249D01*
X799037Y486650D02*
X803463Y486650D01*
X811737Y487463D02*
X811737Y468437D01*
X811737Y487463D02*
X816163Y487463D01*
X816163Y468437D01*
X811737Y468437D01*
X811737Y469838D02*
X816163Y469838D01*
X816163Y471239D02*
X811737Y471239D01*
X811737Y472640D02*
X816163Y472640D01*
X816163Y474041D02*
X811737Y474041D01*
X811737Y475442D02*
X816163Y475442D01*
X816163Y476843D02*
X811737Y476843D01*
X811737Y478244D02*
X816163Y478244D01*
X816163Y479645D02*
X811737Y479645D01*
X811737Y481046D02*
X816163Y481046D01*
X816163Y482447D02*
X811737Y482447D01*
X811737Y483848D02*
X816163Y483848D01*
X816163Y485249D02*
X811737Y485249D01*
X811737Y486650D02*
X816163Y486650D01*
X824437Y487463D02*
X824437Y468437D01*
X824437Y487463D02*
X828863Y487463D01*
X828863Y468437D01*
X824437Y468437D01*
X824437Y469838D02*
X828863Y469838D01*
X828863Y471239D02*
X824437Y471239D01*
X824437Y472640D02*
X828863Y472640D01*
X828863Y474041D02*
X824437Y474041D01*
X824437Y475442D02*
X828863Y475442D01*
X828863Y476843D02*
X824437Y476843D01*
X824437Y478244D02*
X828863Y478244D01*
X828863Y479645D02*
X824437Y479645D01*
X824437Y481046D02*
X828863Y481046D01*
X828863Y482447D02*
X824437Y482447D01*
X824437Y483848D02*
X828863Y483848D01*
X828863Y485249D02*
X824437Y485249D01*
X824437Y486650D02*
X828863Y486650D01*
X837137Y487463D02*
X837137Y468437D01*
X837137Y487463D02*
X841563Y487463D01*
X841563Y468437D01*
X837137Y468437D01*
X837137Y469838D02*
X841563Y469838D01*
X841563Y471239D02*
X837137Y471239D01*
X837137Y472640D02*
X841563Y472640D01*
X841563Y474041D02*
X837137Y474041D01*
X837137Y475442D02*
X841563Y475442D01*
X841563Y476843D02*
X837137Y476843D01*
X837137Y478244D02*
X841563Y478244D01*
X841563Y479645D02*
X837137Y479645D01*
X837137Y481046D02*
X841563Y481046D01*
X841563Y482447D02*
X837137Y482447D01*
X837137Y483848D02*
X841563Y483848D01*
X841563Y485249D02*
X837137Y485249D01*
X837137Y486650D02*
X841563Y486650D01*
X849837Y487463D02*
X849837Y468437D01*
X849837Y487463D02*
X854263Y487463D01*
X854263Y468437D01*
X849837Y468437D01*
X849837Y469838D02*
X854263Y469838D01*
X854263Y471239D02*
X849837Y471239D01*
X849837Y472640D02*
X854263Y472640D01*
X854263Y474041D02*
X849837Y474041D01*
X849837Y475442D02*
X854263Y475442D01*
X854263Y476843D02*
X849837Y476843D01*
X849837Y478244D02*
X854263Y478244D01*
X854263Y479645D02*
X849837Y479645D01*
X849837Y481046D02*
X854263Y481046D01*
X854263Y482447D02*
X849837Y482447D01*
X849837Y483848D02*
X854263Y483848D01*
X854263Y485249D02*
X849837Y485249D01*
X849837Y486650D02*
X854263Y486650D01*
X862537Y487463D02*
X862537Y468437D01*
X862537Y487463D02*
X866963Y487463D01*
X866963Y468437D01*
X862537Y468437D01*
X862537Y469838D02*
X866963Y469838D01*
X866963Y471239D02*
X862537Y471239D01*
X862537Y472640D02*
X866963Y472640D01*
X866963Y474041D02*
X862537Y474041D01*
X862537Y475442D02*
X866963Y475442D01*
X866963Y476843D02*
X862537Y476843D01*
X862537Y478244D02*
X866963Y478244D01*
X866963Y479645D02*
X862537Y479645D01*
X862537Y481046D02*
X866963Y481046D01*
X866963Y482447D02*
X862537Y482447D01*
X862537Y483848D02*
X866963Y483848D01*
X866963Y485249D02*
X862537Y485249D01*
X862537Y486650D02*
X866963Y486650D01*
X875237Y487463D02*
X875237Y468437D01*
X875237Y487463D02*
X879663Y487463D01*
X879663Y468437D01*
X875237Y468437D01*
X875237Y469838D02*
X879663Y469838D01*
X879663Y471239D02*
X875237Y471239D01*
X875237Y472640D02*
X879663Y472640D01*
X879663Y474041D02*
X875237Y474041D01*
X875237Y475442D02*
X879663Y475442D01*
X879663Y476843D02*
X875237Y476843D01*
X875237Y478244D02*
X879663Y478244D01*
X879663Y479645D02*
X875237Y479645D01*
X875237Y481046D02*
X879663Y481046D01*
X879663Y482447D02*
X875237Y482447D01*
X875237Y483848D02*
X879663Y483848D01*
X879663Y485249D02*
X875237Y485249D01*
X875237Y486650D02*
X879663Y486650D01*
D41*
X1387800Y547700D03*
D42*
X1381313Y541313D02*
X1381313Y534387D01*
X1379287Y534387D01*
X1379287Y541313D01*
X1381313Y541313D01*
X1381313Y535028D02*
X1379287Y535028D01*
X1379287Y535669D02*
X1381313Y535669D01*
X1381313Y536310D02*
X1379287Y536310D01*
X1379287Y536951D02*
X1381313Y536951D01*
X1381313Y537592D02*
X1379287Y537592D01*
X1379287Y538233D02*
X1381313Y538233D01*
X1381313Y538874D02*
X1379287Y538874D01*
X1379287Y539515D02*
X1381313Y539515D01*
X1381313Y540156D02*
X1379287Y540156D01*
X1379287Y540797D02*
X1381313Y540797D01*
X1386313Y541313D02*
X1386313Y534387D01*
X1384287Y534387D01*
X1384287Y541313D01*
X1386313Y541313D01*
X1386313Y535028D02*
X1384287Y535028D01*
X1384287Y535669D02*
X1386313Y535669D01*
X1386313Y536310D02*
X1384287Y536310D01*
X1384287Y536951D02*
X1386313Y536951D01*
X1386313Y537592D02*
X1384287Y537592D01*
X1384287Y538233D02*
X1386313Y538233D01*
X1386313Y538874D02*
X1384287Y538874D01*
X1384287Y539515D02*
X1386313Y539515D01*
X1386313Y540156D02*
X1384287Y540156D01*
X1384287Y540797D02*
X1386313Y540797D01*
X1391313Y541313D02*
X1391313Y534387D01*
X1389287Y534387D01*
X1389287Y541313D01*
X1391313Y541313D01*
X1391313Y535028D02*
X1389287Y535028D01*
X1389287Y535669D02*
X1391313Y535669D01*
X1391313Y536310D02*
X1389287Y536310D01*
X1389287Y536951D02*
X1391313Y536951D01*
X1391313Y537592D02*
X1389287Y537592D01*
X1389287Y538233D02*
X1391313Y538233D01*
X1391313Y538874D02*
X1389287Y538874D01*
X1389287Y539515D02*
X1391313Y539515D01*
X1391313Y540156D02*
X1389287Y540156D01*
X1389287Y540797D02*
X1391313Y540797D01*
X1396313Y541313D02*
X1396313Y534387D01*
X1394287Y534387D01*
X1394287Y541313D01*
X1396313Y541313D01*
X1396313Y535028D02*
X1394287Y535028D01*
X1394287Y535669D02*
X1396313Y535669D01*
X1396313Y536310D02*
X1394287Y536310D01*
X1394287Y536951D02*
X1396313Y536951D01*
X1396313Y537592D02*
X1394287Y537592D01*
X1394287Y538233D02*
X1396313Y538233D01*
X1396313Y538874D02*
X1394287Y538874D01*
X1394287Y539515D02*
X1396313Y539515D01*
X1396313Y540156D02*
X1394287Y540156D01*
X1394287Y540797D02*
X1396313Y540797D01*
X1396313Y554087D02*
X1396313Y561013D01*
X1396313Y554087D02*
X1394287Y554087D01*
X1394287Y561013D01*
X1396313Y561013D01*
X1396313Y554728D02*
X1394287Y554728D01*
X1394287Y555369D02*
X1396313Y555369D01*
X1396313Y556010D02*
X1394287Y556010D01*
X1394287Y556651D02*
X1396313Y556651D01*
X1396313Y557292D02*
X1394287Y557292D01*
X1394287Y557933D02*
X1396313Y557933D01*
X1396313Y558574D02*
X1394287Y558574D01*
X1394287Y559215D02*
X1396313Y559215D01*
X1396313Y559856D02*
X1394287Y559856D01*
X1394287Y560497D02*
X1396313Y560497D01*
X1391313Y561013D02*
X1391313Y554087D01*
X1389287Y554087D01*
X1389287Y561013D01*
X1391313Y561013D01*
X1391313Y554728D02*
X1389287Y554728D01*
X1389287Y555369D02*
X1391313Y555369D01*
X1391313Y556010D02*
X1389287Y556010D01*
X1389287Y556651D02*
X1391313Y556651D01*
X1391313Y557292D02*
X1389287Y557292D01*
X1389287Y557933D02*
X1391313Y557933D01*
X1391313Y558574D02*
X1389287Y558574D01*
X1389287Y559215D02*
X1391313Y559215D01*
X1391313Y559856D02*
X1389287Y559856D01*
X1389287Y560497D02*
X1391313Y560497D01*
X1386313Y561013D02*
X1386313Y554087D01*
X1384287Y554087D01*
X1384287Y561013D01*
X1386313Y561013D01*
X1386313Y554728D02*
X1384287Y554728D01*
X1384287Y555369D02*
X1386313Y555369D01*
X1386313Y556010D02*
X1384287Y556010D01*
X1384287Y556651D02*
X1386313Y556651D01*
X1386313Y557292D02*
X1384287Y557292D01*
X1384287Y557933D02*
X1386313Y557933D01*
X1386313Y558574D02*
X1384287Y558574D01*
X1384287Y559215D02*
X1386313Y559215D01*
X1386313Y559856D02*
X1384287Y559856D01*
X1384287Y560497D02*
X1386313Y560497D01*
X1381313Y561013D02*
X1381313Y554087D01*
X1379287Y554087D01*
X1379287Y561013D01*
X1381313Y561013D01*
X1381313Y554728D02*
X1379287Y554728D01*
X1379287Y555369D02*
X1381313Y555369D01*
X1381313Y556010D02*
X1379287Y556010D01*
X1379287Y556651D02*
X1381313Y556651D01*
X1381313Y557292D02*
X1379287Y557292D01*
X1379287Y557933D02*
X1381313Y557933D01*
X1381313Y558574D02*
X1379287Y558574D01*
X1379287Y559215D02*
X1381313Y559215D01*
X1381313Y559856D02*
X1379287Y559856D01*
X1379287Y560497D02*
X1381313Y560497D01*
D43*
X76800Y487500D03*
X89500Y487500D03*
X102200Y487500D03*
X114900Y487500D03*
X127600Y487500D03*
X140300Y487500D03*
X153000Y487500D03*
X165700Y487500D03*
X178400Y487500D03*
X191100Y487500D03*
X203800Y487500D03*
X216500Y487500D03*
X229200Y487500D03*
X241900Y487500D03*
X241900Y662500D03*
X229200Y662500D03*
X216500Y662500D03*
X203800Y662500D03*
X191100Y662500D03*
X178400Y662500D03*
X165700Y662500D03*
X153000Y662500D03*
X140300Y662500D03*
X127600Y662500D03*
X114900Y662500D03*
X102200Y662500D03*
X89500Y662500D03*
X76800Y662500D03*
D15*
X134000Y559950D03*
X121500Y547450D03*
X121500Y559950D03*
X121500Y572450D03*
X134000Y547450D03*
X134000Y572450D03*
X146500Y547450D03*
X146500Y559950D03*
X146500Y572450D03*
M02*
