G04 EAGLE Gerber RS-274X export*
G75*
%MOMM*%
%FSLAX34Y34*%
%LPD*%
%INSoldermask Top*%
%IPPOS*%
%AMOC8*
5,1,8,0,0,1.08239X$1,22.5*%
G01*
G04 Define Apertures*
%ADD10R,1.603200X1.253200*%
%ADD11R,1.103200X0.903200*%
%ADD12R,1.603200X1.603200*%
%ADD13R,0.903200X1.103200*%
%ADD14R,2.403200X2.203200*%
%ADD15R,1.003200X1.003200*%
%ADD16R,1.403200X0.803200*%
%ADD17R,1.143200X1.173200*%
%ADD18R,1.173200X1.143200*%
%ADD19R,1.103200X1.003200*%
%ADD20R,1.353200X1.003200*%
%ADD21R,1.003200X1.103200*%
%ADD22R,1.103200X0.803200*%
%ADD23R,0.503200X1.003200*%
%ADD24R,0.603200X1.003200*%
%ADD25R,1.353200X0.503200*%
%ADD26R,2.203200X2.383200*%
%ADD27C,0.853200*%
%ADD28R,2.203200X1.403200*%
%ADD29R,1.553200X0.803200*%
%ADD30R,1.403200X2.003200*%
%ADD31R,2.103200X1.603200*%
%ADD32R,1.703200X0.903200*%
%ADD33R,0.330200X0.330200*%
%ADD34R,1.703200X3.803200*%
%ADD35R,0.703200X1.253200*%
%ADD36C,0.330503*%
%ADD37R,0.152400X1.828800*%
%ADD38R,1.371600X1.803400*%
%ADD39C,2.203200*%
%ADD40C,0.315166*%
%ADD41R,3.603200X4.503200*%
%ADD42R,1.403200X0.753200*%
%ADD43C,0.349006*%
%ADD44C,0.269722*%
%ADD45R,1.503200X1.103200*%
%ADD46R,1.103200X1.703200*%
D10*
X506800Y1096590D03*
X471800Y1096590D03*
X471800Y1081590D03*
X506800Y1081590D03*
D11*
X1491700Y52100D03*
X1491700Y65100D03*
X607700Y1077100D03*
X607700Y1090100D03*
D12*
X943600Y485600D03*
X943600Y463600D03*
D11*
X1220500Y518000D03*
X1220500Y531000D03*
D13*
X1152800Y400700D03*
X1165800Y400700D03*
D11*
X1295300Y415200D03*
X1295300Y428200D03*
X1511700Y53900D03*
X1511700Y66900D03*
D13*
X1157100Y567500D03*
X1170100Y567500D03*
D14*
X1252000Y409100D03*
X1252000Y439100D03*
D11*
X1046100Y325600D03*
X1046100Y338600D03*
D13*
X1479400Y449500D03*
X1492400Y449500D03*
D11*
X204900Y1072500D03*
X204900Y1085500D03*
D13*
X1480500Y461500D03*
X1493500Y461500D03*
D11*
X441700Y1069700D03*
X441700Y1082700D03*
D13*
X883700Y267100D03*
X896700Y267100D03*
D11*
X913700Y467500D03*
X913700Y480500D03*
D13*
X138300Y985300D03*
X151300Y985300D03*
D10*
X657100Y1096590D03*
X622100Y1096590D03*
X622100Y1081590D03*
X657100Y1081590D03*
D15*
X1216000Y568700D03*
X1201000Y568700D03*
D11*
X500100Y884400D03*
X500100Y897400D03*
D16*
X1473500Y500200D03*
X1473500Y490700D03*
X1473500Y481200D03*
X1498500Y481200D03*
X1498500Y490700D03*
X1498500Y500200D03*
D17*
X397300Y514900D03*
X397300Y529900D03*
D18*
X122700Y450700D03*
X137700Y450700D03*
X360000Y532800D03*
X375000Y532800D03*
D19*
X1155200Y422900D03*
X1155200Y443900D03*
D20*
X975800Y278800D03*
X1010800Y278800D03*
X976200Y316800D03*
X1011200Y316800D03*
X880600Y366800D03*
X915600Y366800D03*
D17*
X473300Y357500D03*
X473300Y372500D03*
D21*
X839400Y622800D03*
X860400Y622800D03*
D17*
X501300Y357300D03*
X501300Y372300D03*
X529300Y359100D03*
X529300Y374100D03*
D11*
X972100Y184000D03*
X972100Y197000D03*
X855300Y181600D03*
X855300Y194600D03*
X682700Y123600D03*
X682700Y110600D03*
D13*
X642000Y144700D03*
X655000Y144700D03*
D11*
X958100Y184400D03*
X958100Y197400D03*
X942100Y184800D03*
X942100Y197800D03*
X926500Y183600D03*
X926500Y196600D03*
X908500Y182700D03*
X908500Y195700D03*
X890500Y181800D03*
X890500Y194800D03*
X872500Y180900D03*
X872500Y193900D03*
D22*
X451700Y904200D03*
X451700Y894700D03*
X451700Y885200D03*
X479700Y885200D03*
X479700Y904200D03*
X1190100Y444200D03*
X1190100Y434700D03*
X1190100Y425200D03*
X1218100Y425200D03*
X1218100Y444200D03*
D23*
X953900Y150900D03*
X948900Y150900D03*
X943900Y150900D03*
X938900Y150900D03*
X933900Y150900D03*
X928900Y150900D03*
X923900Y150900D03*
X918900Y150900D03*
X913900Y150900D03*
X908900Y150900D03*
X903900Y150900D03*
X898900Y150900D03*
X893900Y150900D03*
X888900Y150900D03*
X883900Y150900D03*
X878900Y150900D03*
X873900Y150900D03*
X868900Y150900D03*
X863900Y150900D03*
X858900Y150900D03*
X853900Y150900D03*
X848900Y150900D03*
X843900Y150900D03*
X838900Y150900D03*
D24*
X963900Y125900D03*
X828900Y125900D03*
D25*
X1625180Y512100D03*
X1625180Y520100D03*
X1625180Y533100D03*
X1625180Y543100D03*
X1625180Y548100D03*
X1625180Y558100D03*
X1625180Y571100D03*
X1625180Y579100D03*
X1625180Y576100D03*
X1625180Y568100D03*
X1625180Y563100D03*
X1625180Y553100D03*
X1625180Y538100D03*
X1625180Y528100D03*
X1625180Y523100D03*
X1625180Y515100D03*
D26*
X1670230Y494500D03*
X1670230Y596700D03*
X1630930Y494500D03*
X1630930Y596700D03*
D27*
X1635930Y516700D03*
X1635930Y574500D03*
D28*
X1691840Y162800D03*
X1691840Y218800D03*
D29*
X1655090Y175800D03*
X1655090Y185800D03*
X1655090Y195800D03*
X1655090Y205800D03*
D30*
X153500Y853824D03*
X153500Y910824D03*
D31*
X11000Y823824D03*
X21000Y955324D03*
D32*
X49500Y871824D03*
X53500Y882824D03*
X49500Y893824D03*
X47500Y904824D03*
X49500Y915824D03*
X47500Y926824D03*
X49500Y937824D03*
X49500Y948824D03*
D30*
X153500Y882324D03*
X153500Y939324D03*
D33*
X875840Y314500D03*
X921560Y314500D03*
D34*
X1443900Y418000D03*
X1488900Y418000D03*
D19*
X847600Y287600D03*
X847600Y268600D03*
X868600Y278100D03*
D21*
X1317600Y491600D03*
X1336600Y491600D03*
X1327100Y512600D03*
D35*
X714700Y197900D03*
X727700Y197900D03*
X721200Y218900D03*
D11*
X207100Y457300D03*
X207100Y444300D03*
X1471300Y49800D03*
X1471300Y62800D03*
D13*
X843600Y601900D03*
X856600Y601900D03*
D11*
X82900Y992100D03*
X82900Y1005100D03*
X1295700Y568300D03*
X1295700Y581300D03*
X1129600Y428700D03*
X1129600Y441700D03*
X756900Y204900D03*
X756900Y217900D03*
X1534500Y52300D03*
X1534500Y65300D03*
X916100Y570000D03*
X916100Y583000D03*
X1517700Y484500D03*
X1517700Y497500D03*
X1423300Y473600D03*
X1423300Y486600D03*
D13*
X1191400Y552300D03*
X1204400Y552300D03*
D11*
X830900Y268900D03*
X830900Y281900D03*
D13*
X715300Y175100D03*
X728300Y175100D03*
D11*
X114900Y992900D03*
X114900Y1005900D03*
X532900Y318100D03*
X532900Y331100D03*
X502900Y319300D03*
X502900Y332300D03*
D13*
X108500Y387100D03*
X121500Y387100D03*
D11*
X472900Y319700D03*
X472900Y332700D03*
D10*
X258000Y1096590D03*
X223000Y1096590D03*
X223000Y1081590D03*
X258000Y1081590D03*
D11*
X521300Y1070700D03*
X521300Y1083700D03*
D13*
X884300Y451600D03*
X871300Y451600D03*
D11*
X671600Y1076400D03*
X671600Y1089400D03*
D13*
G36*
X801627Y280336D02*
X810657Y280430D01*
X810773Y269400D01*
X801743Y269306D01*
X801627Y280336D01*
G37*
G36*
X788627Y280200D02*
X797657Y280294D01*
X797773Y269264D01*
X788743Y269170D01*
X788627Y280200D01*
G37*
D11*
X274100Y1073200D03*
X274100Y1086200D03*
D36*
X1515536Y148336D02*
X1524424Y148336D01*
X1515536Y148336D02*
X1515536Y152064D01*
X1524424Y152064D01*
X1524424Y148336D01*
X1524424Y151476D02*
X1515536Y151476D01*
X1515536Y140336D02*
X1524424Y140336D01*
X1515536Y140336D02*
X1515536Y144064D01*
X1524424Y144064D01*
X1524424Y140336D01*
X1524424Y143476D02*
X1515536Y143476D01*
X1515536Y132336D02*
X1524424Y132336D01*
X1515536Y132336D02*
X1515536Y136064D01*
X1524424Y136064D01*
X1524424Y132336D01*
X1524424Y135476D02*
X1515536Y135476D01*
X1515536Y124336D02*
X1524424Y124336D01*
X1515536Y124336D02*
X1515536Y128064D01*
X1524424Y128064D01*
X1524424Y124336D01*
X1524424Y127476D02*
X1515536Y127476D01*
X1495264Y124136D02*
X1486376Y124136D01*
X1486376Y127864D01*
X1495264Y127864D01*
X1495264Y124136D01*
X1495264Y127276D02*
X1486376Y127276D01*
X1486376Y132336D02*
X1495264Y132336D01*
X1486376Y132336D02*
X1486376Y136064D01*
X1495264Y136064D01*
X1495264Y132336D01*
X1495264Y135476D02*
X1486376Y135476D01*
X1486376Y140336D02*
X1495264Y140336D01*
X1486376Y140336D02*
X1486376Y144064D01*
X1495264Y144064D01*
X1495264Y140336D01*
X1495264Y143476D02*
X1486376Y143476D01*
X1486376Y148336D02*
X1495264Y148336D01*
X1486376Y148336D02*
X1486376Y152064D01*
X1495264Y152064D01*
X1495264Y148336D01*
X1495264Y151476D02*
X1486376Y151476D01*
D37*
X645600Y117900D03*
D38*
X637980Y117900D03*
X653220Y117900D03*
D39*
X98100Y749900D03*
X69900Y301100D03*
X372900Y25900D03*
X120400Y299100D03*
X188900Y751100D03*
X1228900Y643900D03*
X27400Y301900D03*
X25900Y1089900D03*
X1096400Y43900D03*
X143300Y749900D03*
X880500Y983900D03*
X879700Y1033900D03*
X24900Y1053900D03*
X70100Y1089900D03*
X113300Y1087900D03*
X240500Y805900D03*
X53700Y749900D03*
D40*
X327810Y619010D02*
X336090Y619010D01*
X327810Y619010D02*
X327810Y622290D01*
X336090Y622290D01*
X336090Y619010D01*
X336090Y622004D02*
X327810Y622004D01*
X327810Y606310D02*
X336090Y606310D01*
X327810Y606310D02*
X327810Y609590D01*
X336090Y609590D01*
X336090Y606310D01*
X336090Y609304D02*
X327810Y609304D01*
X327810Y593610D02*
X336090Y593610D01*
X327810Y593610D02*
X327810Y596890D01*
X336090Y596890D01*
X336090Y593610D01*
X336090Y596604D02*
X327810Y596604D01*
X327810Y580910D02*
X336090Y580910D01*
X327810Y580910D02*
X327810Y584190D01*
X336090Y584190D01*
X336090Y580910D01*
X336090Y583904D02*
X327810Y583904D01*
X405710Y580910D02*
X413990Y580910D01*
X405710Y580910D02*
X405710Y584190D01*
X413990Y584190D01*
X413990Y580910D01*
X413990Y583904D02*
X405710Y583904D01*
X405710Y593610D02*
X413990Y593610D01*
X405710Y593610D02*
X405710Y596890D01*
X413990Y596890D01*
X413990Y593610D01*
X413990Y596604D02*
X405710Y596604D01*
X405710Y606310D02*
X413990Y606310D01*
X405710Y606310D02*
X405710Y609590D01*
X413990Y609590D01*
X413990Y606310D01*
X413990Y609304D02*
X405710Y609304D01*
X405710Y619010D02*
X413990Y619010D01*
X405710Y619010D02*
X405710Y622290D01*
X413990Y622290D01*
X413990Y619010D01*
X413990Y622004D02*
X405710Y622004D01*
D41*
X370900Y601600D03*
D42*
X1258101Y549300D03*
X1258101Y558800D03*
X1258101Y568300D03*
X1232099Y568300D03*
X1232099Y549300D03*
D43*
X875229Y561529D02*
X875229Y580571D01*
X879671Y580571D01*
X879671Y561529D01*
X875229Y561529D01*
X875229Y564844D02*
X879671Y564844D01*
X879671Y568159D02*
X875229Y568159D01*
X875229Y571474D02*
X879671Y571474D01*
X879671Y574789D02*
X875229Y574789D01*
X875229Y578104D02*
X879671Y578104D01*
X862529Y580571D02*
X862529Y561529D01*
X862529Y580571D02*
X866971Y580571D01*
X866971Y561529D01*
X862529Y561529D01*
X862529Y564844D02*
X866971Y564844D01*
X866971Y568159D02*
X862529Y568159D01*
X862529Y571474D02*
X866971Y571474D01*
X866971Y574789D02*
X862529Y574789D01*
X862529Y578104D02*
X866971Y578104D01*
X849829Y580571D02*
X849829Y561529D01*
X849829Y580571D02*
X854271Y580571D01*
X854271Y561529D01*
X849829Y561529D01*
X849829Y564844D02*
X854271Y564844D01*
X854271Y568159D02*
X849829Y568159D01*
X849829Y571474D02*
X854271Y571474D01*
X854271Y574789D02*
X849829Y574789D01*
X849829Y578104D02*
X854271Y578104D01*
X837129Y580571D02*
X837129Y561529D01*
X837129Y580571D02*
X841571Y580571D01*
X841571Y561529D01*
X837129Y561529D01*
X837129Y564844D02*
X841571Y564844D01*
X841571Y568159D02*
X837129Y568159D01*
X837129Y571474D02*
X841571Y571474D01*
X841571Y574789D02*
X837129Y574789D01*
X837129Y578104D02*
X841571Y578104D01*
X824429Y580571D02*
X824429Y561529D01*
X824429Y580571D02*
X828871Y580571D01*
X828871Y561529D01*
X824429Y561529D01*
X824429Y564844D02*
X828871Y564844D01*
X828871Y568159D02*
X824429Y568159D01*
X824429Y571474D02*
X828871Y571474D01*
X828871Y574789D02*
X824429Y574789D01*
X824429Y578104D02*
X828871Y578104D01*
X811729Y580571D02*
X811729Y561529D01*
X811729Y580571D02*
X816171Y580571D01*
X816171Y561529D01*
X811729Y561529D01*
X811729Y564844D02*
X816171Y564844D01*
X816171Y568159D02*
X811729Y568159D01*
X811729Y571474D02*
X816171Y571474D01*
X816171Y574789D02*
X811729Y574789D01*
X811729Y578104D02*
X816171Y578104D01*
X799029Y580571D02*
X799029Y561529D01*
X799029Y580571D02*
X803471Y580571D01*
X803471Y561529D01*
X799029Y561529D01*
X799029Y564844D02*
X803471Y564844D01*
X803471Y568159D02*
X799029Y568159D01*
X799029Y571474D02*
X803471Y571474D01*
X803471Y574789D02*
X799029Y574789D01*
X799029Y578104D02*
X803471Y578104D01*
X786329Y580571D02*
X786329Y561529D01*
X786329Y580571D02*
X790771Y580571D01*
X790771Y561529D01*
X786329Y561529D01*
X786329Y564844D02*
X790771Y564844D01*
X790771Y568159D02*
X786329Y568159D01*
X786329Y571474D02*
X790771Y571474D01*
X790771Y574789D02*
X786329Y574789D01*
X786329Y578104D02*
X790771Y578104D01*
X786329Y487471D02*
X786329Y468429D01*
X786329Y487471D02*
X790771Y487471D01*
X790771Y468429D01*
X786329Y468429D01*
X786329Y471744D02*
X790771Y471744D01*
X790771Y475059D02*
X786329Y475059D01*
X786329Y478374D02*
X790771Y478374D01*
X790771Y481689D02*
X786329Y481689D01*
X786329Y485004D02*
X790771Y485004D01*
X799029Y487471D02*
X799029Y468429D01*
X799029Y487471D02*
X803471Y487471D01*
X803471Y468429D01*
X799029Y468429D01*
X799029Y471744D02*
X803471Y471744D01*
X803471Y475059D02*
X799029Y475059D01*
X799029Y478374D02*
X803471Y478374D01*
X803471Y481689D02*
X799029Y481689D01*
X799029Y485004D02*
X803471Y485004D01*
X811729Y487471D02*
X811729Y468429D01*
X811729Y487471D02*
X816171Y487471D01*
X816171Y468429D01*
X811729Y468429D01*
X811729Y471744D02*
X816171Y471744D01*
X816171Y475059D02*
X811729Y475059D01*
X811729Y478374D02*
X816171Y478374D01*
X816171Y481689D02*
X811729Y481689D01*
X811729Y485004D02*
X816171Y485004D01*
X824429Y487471D02*
X824429Y468429D01*
X824429Y487471D02*
X828871Y487471D01*
X828871Y468429D01*
X824429Y468429D01*
X824429Y471744D02*
X828871Y471744D01*
X828871Y475059D02*
X824429Y475059D01*
X824429Y478374D02*
X828871Y478374D01*
X828871Y481689D02*
X824429Y481689D01*
X824429Y485004D02*
X828871Y485004D01*
X837129Y487471D02*
X837129Y468429D01*
X837129Y487471D02*
X841571Y487471D01*
X841571Y468429D01*
X837129Y468429D01*
X837129Y471744D02*
X841571Y471744D01*
X841571Y475059D02*
X837129Y475059D01*
X837129Y478374D02*
X841571Y478374D01*
X841571Y481689D02*
X837129Y481689D01*
X837129Y485004D02*
X841571Y485004D01*
X849829Y487471D02*
X849829Y468429D01*
X849829Y487471D02*
X854271Y487471D01*
X854271Y468429D01*
X849829Y468429D01*
X849829Y471744D02*
X854271Y471744D01*
X854271Y475059D02*
X849829Y475059D01*
X849829Y478374D02*
X854271Y478374D01*
X854271Y481689D02*
X849829Y481689D01*
X849829Y485004D02*
X854271Y485004D01*
X862529Y487471D02*
X862529Y468429D01*
X862529Y487471D02*
X866971Y487471D01*
X866971Y468429D01*
X862529Y468429D01*
X862529Y471744D02*
X866971Y471744D01*
X866971Y475059D02*
X862529Y475059D01*
X862529Y478374D02*
X866971Y478374D01*
X866971Y481689D02*
X862529Y481689D01*
X862529Y485004D02*
X866971Y485004D01*
X875229Y487471D02*
X875229Y468429D01*
X875229Y487471D02*
X879671Y487471D01*
X879671Y468429D01*
X875229Y468429D01*
X875229Y471744D02*
X879671Y471744D01*
X879671Y475059D02*
X875229Y475059D01*
X875229Y478374D02*
X879671Y478374D01*
X879671Y481689D02*
X875229Y481689D01*
X875229Y485004D02*
X879671Y485004D01*
D44*
X1381318Y534382D02*
X1381318Y541318D01*
X1381318Y534382D02*
X1379282Y534382D01*
X1379282Y541318D01*
X1381318Y541318D01*
X1381318Y536944D02*
X1379282Y536944D01*
X1379282Y539506D02*
X1381318Y539506D01*
X1386318Y541318D02*
X1386318Y534382D01*
X1384282Y534382D01*
X1384282Y541318D01*
X1386318Y541318D01*
X1386318Y536944D02*
X1384282Y536944D01*
X1384282Y539506D02*
X1386318Y539506D01*
X1391318Y541318D02*
X1391318Y534382D01*
X1389282Y534382D01*
X1389282Y541318D01*
X1391318Y541318D01*
X1391318Y536944D02*
X1389282Y536944D01*
X1389282Y539506D02*
X1391318Y539506D01*
X1396318Y541318D02*
X1396318Y534382D01*
X1394282Y534382D01*
X1394282Y541318D01*
X1396318Y541318D01*
X1396318Y536944D02*
X1394282Y536944D01*
X1394282Y539506D02*
X1396318Y539506D01*
X1396318Y554082D02*
X1396318Y561018D01*
X1396318Y554082D02*
X1394282Y554082D01*
X1394282Y561018D01*
X1396318Y561018D01*
X1396318Y556644D02*
X1394282Y556644D01*
X1394282Y559206D02*
X1396318Y559206D01*
X1391318Y561018D02*
X1391318Y554082D01*
X1389282Y554082D01*
X1389282Y561018D01*
X1391318Y561018D01*
X1391318Y556644D02*
X1389282Y556644D01*
X1389282Y559206D02*
X1391318Y559206D01*
X1386318Y561018D02*
X1386318Y554082D01*
X1384282Y554082D01*
X1384282Y561018D01*
X1386318Y561018D01*
X1386318Y556644D02*
X1384282Y556644D01*
X1384282Y559206D02*
X1386318Y559206D01*
X1381318Y561018D02*
X1381318Y554082D01*
X1379282Y554082D01*
X1379282Y561018D01*
X1381318Y561018D01*
X1381318Y556644D02*
X1379282Y556644D01*
X1379282Y559206D02*
X1381318Y559206D01*
D45*
X1387800Y547700D03*
D46*
X76800Y487500D03*
X89500Y487500D03*
X102200Y487500D03*
X114900Y487500D03*
X127600Y487500D03*
X140300Y487500D03*
X153000Y487500D03*
X165700Y487500D03*
X178400Y487500D03*
X191100Y487500D03*
X203800Y487500D03*
X216500Y487500D03*
X229200Y487500D03*
X241900Y487500D03*
X241900Y662500D03*
X229200Y662500D03*
X216500Y662500D03*
X203800Y662500D03*
X191100Y662500D03*
X178400Y662500D03*
X165700Y662500D03*
X153000Y662500D03*
X140300Y662500D03*
X127600Y662500D03*
X114900Y662500D03*
X102200Y662500D03*
X89500Y662500D03*
X76800Y662500D03*
D15*
X134000Y559950D03*
X121500Y547450D03*
X121500Y559950D03*
X121500Y572450D03*
X134000Y547450D03*
X134000Y572450D03*
X146500Y547450D03*
X146500Y559950D03*
X146500Y572450D03*
M02*
