M48
;GenerationSoftware,Autodesk,EAGLE,9.7.0*%
;CreationDate,2025-04-06T16:14:33Z*%
FMAT,2
ICI,OFF
METRIC,TZ,000.000
T2C0.350
T1C0.650
%
G90
M71
T1
X163593Y57450
X163593Y51670
T2
X74488Y12620
X150976Y47401
X150976Y50633
X139587Y52788
X130815Y42938
X21700Y106960
X19391Y107422
X11235Y45093
X10927Y53557
X8618Y64946
X28010Y100651
X51864Y35859
X7695Y47093
X152977Y51249
X159902Y51249
X156824Y54327
X146139Y48439
X154823Y53711
X148667Y50017
X134663Y48632
X22931Y47401
X22008Y47247
X148668Y47110
X97419Y34012
X94187Y34012
X74642Y22008
X85415Y14159
X86800Y20315
X85722Y16313
X88031Y20161
X86800Y17083
X90031Y20315
X86954Y16159
X91724Y20315
X88954Y14005
X56635Y24624
X7541Y91570
X10157Y107576
X31703Y56327
X17852Y51710
X13697Y40322
X88954Y13081
X51095Y31088
X40014Y58790
X40014Y54173
X24470Y56943
X3540Y88954
X22469Y81105
X46324Y36628
X95880Y16006
X59559Y30472
X49094Y37244
X23393Y46170
X8926Y32011
X21854Y44939
X83722Y12004
X11542Y62945
X90339Y13081
X38475Y3694
X12928Y39552
X95726Y13389
X98342Y20007
X94033Y14005
X96649Y20623
X96187Y14928
X72795Y15390
X96803Y16006
X85876Y27240
X24470Y69101
X18930Y69101
X25393Y63407
X82644Y58790
X163288Y20469
X153746Y10927
X130661Y56481
X88646Y47863
X17852Y62637
X163288Y19545
X154977Y11235
X129276Y55712
X90031Y48325
X19699Y64946
X88646Y48786
X133431Y46478
X16467Y44015
X3847Y31396
X84491Y58636
X75873Y51095
X41091Y51095
X18622Y51095
X18930Y50171
X91570Y48940
X40937Y54481
X34166Y61560
X30164Y62022
X25393Y57251
X26932Y57251
X40630Y46632
X11850Y47401
X3694Y87877
X18468Y56020
X23547Y64022
X153131Y15082
X45247Y107422
X45862Y109423
X49710Y107114
X26625Y74949
X63561Y108807
X63561Y107268
X66947Y109885
X18160Y70640
X120811Y54173
X122350Y54019
X133739Y48171
X122812Y48171
X43246Y90493
X27394Y106345
X75000Y109200
X17400Y109200
X78600Y107400
X82200Y105600
X24600Y105600
X57000Y103800
X28200Y103800
X89400Y102000
X60600Y102000
X3000Y102000
X35400Y100200
X67800Y98400
X39000Y98400
X10200Y98400
X71400Y96600
X42600Y96600
X13800Y96600
X75000Y94800
X17400Y94800
X78600Y93000
X67800Y40800
X39000Y40800
X157800Y39000
X129000Y39000
X100200Y39000
X71400Y39000
X132600Y37200
X103800Y37200
X75000Y37200
X165000Y35400
X107400Y35400
X21000Y35400
X168600Y33600
X139800Y33600
X111000Y33600
X82200Y33600
X24600Y33600
X143400Y31800
X114600Y31800
X85800Y31800
X28200Y31800
X147000Y30000
X118200Y30000
X31800Y30000
X150600Y28200
X121800Y28200
X93000Y28200
X64200Y28200
X35400Y28200
X6600Y28200
X125400Y26400
X67800Y26400
X39000Y26400
X10200Y26400
X157800Y24600
X129000Y24600
X100200Y24600
X71400Y24600
X13800Y24600
X132600Y22800
X103800Y22800
X46200Y22800
X136200Y21000
X107400Y21000
X10200Y12000
X157800Y10200
X129000Y10200
X100200Y10200
X13800Y10200
X161400Y8400
X132600Y8400
X103800Y8400
X75000Y8400
X46200Y8400
X17400Y8400
X165000Y6600
X136200Y6600
X78600Y6600
X49800Y6600
X21000Y6600
X168600Y4800
X139800Y4800
X53400Y4800
X24600Y4800
X143400Y3000
X114600Y3000
X57000Y3000
X28200Y3000
X147000Y1200
X3000Y1200
X31800Y1200
X60600Y1200
X118200Y1200
X39000Y12000
X125400Y12000
X6600Y13800
X35400Y13800
X121800Y13800
X3000Y15600
X31800Y15600
X60600Y15600
X118200Y15600
X147000Y15600
X28200Y17400
X57000Y17400
X114600Y17400
X143400Y17400
X24600Y19200
X53400Y19200
X82200Y19200
X111000Y19200
X139800Y19200
X168600Y19200
X49800Y21000
X154200Y40800
X150600Y42600
X3000Y44400
X31800Y44400
X60600Y44400
X89400Y44400
X147000Y44400
X139800Y48000
X168600Y48000
X49800Y49800
X78600Y49800
X107400Y49800
X103800Y51600
X42600Y53400
X71400Y53400
X100200Y53400
X129000Y53400
X10200Y55200
X67800Y55200
X64200Y57000
X93000Y57000
X31800Y58800
X60600Y58800
X118200Y58800
X147000Y58800
X57000Y60600
X114600Y60600
X143400Y60600
X139800Y62400
X168600Y62400
X165000Y64200
X46200Y66000
X75000Y66000
X103800Y66000
X132600Y66000
X161400Y66000
X13800Y67800
X42600Y67800
X71400Y67800
X10200Y69600
X39000Y69600
X67800Y69600
X6600Y71400
X35400Y71400
X64200Y71400
X31800Y73200
X60600Y73200
X89400Y73200
X57000Y75000
X85800Y75000
X24600Y76800
X53400Y76800
X82200Y76800
X21000Y78600
X49800Y78600
X78600Y78600
X17400Y80400
X46200Y80400
X75000Y80400
X13800Y82200
X42600Y82200
X71400Y82200
X10200Y84000
X39000Y84000
X67800Y84000
X35400Y85800
X64200Y85800
X31800Y87600
X60600Y87600
X89400Y87600
X28200Y89400
X57000Y89400
X85800Y89400
X24600Y91200
X53400Y91200
X82200Y91200
X21000Y93000
X89400Y109200
X35400Y107400
X67800Y105600
X39000Y105600
X10200Y105600
X71400Y103800
X42600Y103800
X75000Y102000
X46200Y102000
X17400Y102000
X78600Y100200
X49800Y100200
X21000Y100200
X82200Y98400
X53400Y98400
X85800Y96600
X57000Y96600
X28200Y96600
X89400Y94800
X60600Y94800
X31800Y94800
X64200Y93000
X35400Y93000
X82200Y40800
X53400Y40800
X24600Y40800
X143400Y39000
X85800Y39000
X57000Y39000
X147000Y37200
X89400Y37200
X60600Y37200
X3000Y37200
X150600Y35400
X121800Y35400
X64200Y35400
X35400Y35400
X154200Y33600
X125400Y33600
X39000Y33600
X157800Y31800
X129000Y31800
X71400Y31800
X42600Y31800
X13800Y31800
X132600Y30000
X75000Y30000
X46200Y30000
X17400Y30000
X165000Y28200
X136200Y28200
X107400Y28200
X49800Y28200
X21000Y28200
X168600Y26400
X139800Y26400
X111000Y26400
X53400Y26400
X24600Y26400
X143400Y24600
X114600Y24600
X147000Y22800
X118200Y22800
X89400Y22800
X60600Y22800
X31800Y22800
X3000Y22800
X121800Y21000
X24600Y12000
X114600Y10200
X28200Y10200
X147000Y8400
X118200Y8400
X60600Y8400
X3000Y8400
X121800Y6600
X64200Y6600
X35400Y6600
X6600Y6600
X67800Y4800
X10200Y4800
X157800Y3000
X129000Y3000
X100200Y3000
X71400Y3000
X42600Y3000
X13800Y3000
X161400Y1200
X17400Y1200
X46200Y1200
X75000Y1200
X103800Y1200
X132600Y1200
X53400Y12000
X111000Y12000
X139800Y12000
X168600Y12000
X21000Y13800
X49800Y13800
X107400Y13800
X136200Y13800
X165000Y13800
X17400Y15600
X46200Y15600
X103800Y15600
X132600Y15600
X161400Y15600
X13800Y17400
X42600Y17400
X100200Y17400
X129000Y17400
X10200Y19200
X39000Y19200
X125400Y19200
X6600Y21000
X35400Y21000
X64200Y21000
X168600Y40800
X21000Y42600
X136200Y42600
X165000Y42600
X17400Y44400
X46200Y44400
X75000Y44400
X103800Y44400
X100200Y46200
X129000Y46200
X157800Y46200
X39000Y48000
X96600Y48000
X154200Y48000
X64200Y49800
X93000Y49800
X121800Y49800
X89400Y51600
X57000Y53400
X85800Y53400
X114600Y53400
X143400Y53400
X24600Y55200
X168600Y55200
X21000Y57000
X49800Y57000
X165000Y57000
X46200Y58800
X75000Y58800
X132600Y58800
X161400Y58800
X71400Y60600
X100200Y60600
X157800Y60600
X10200Y62400
X67800Y62400
X96600Y62400
X125400Y62400
X154200Y62400
X150600Y64200
X31800Y66000
X60600Y66000
X89400Y66000
X118200Y66000
X147000Y66000
X28200Y67800
X57000Y67800
X85800Y67800
X53400Y69600
X82200Y69600
X21000Y71400
X49800Y71400
X78600Y71400
X46200Y73200
X75000Y73200
X42600Y75000
X71400Y75000
X39000Y76800
X67800Y76800
X6600Y78600
X64200Y78600
X31800Y80400
X60600Y80400
X89400Y80400
X28200Y82200
X57000Y82200
X85800Y82200
X24600Y84000
X53400Y84000
X82200Y84000
X21000Y85800
X49800Y85800
X78600Y85800
X17400Y87600
X46200Y87600
X75000Y87600
X13800Y89400
X71400Y89400
X39000Y91200
X67800Y91200
X6600Y93000
X82200Y109200
X71400Y107400
X42600Y107400
X13800Y107400
X75000Y105600
X46200Y105600
X35400Y103800
X6600Y103800
X67800Y102000
X39000Y102000
X10200Y102000
X85800Y100200
X60600Y98400
X31800Y98400
X3000Y98400
X78600Y96600
X49800Y96600
X21000Y96600
X82200Y94800
X53400Y94800
X24600Y94800
X71400Y93000
X42600Y93000
X60600Y40800
X3000Y40800
X165000Y39000
X136200Y39000
X107400Y39000
X78600Y39000
X49800Y39000
X21000Y39000
X168600Y37200
X139800Y37200
X111000Y37200
X82200Y37200
X157800Y35400
X129000Y35400
X100200Y35400
X71400Y35400
X42600Y35400
X13800Y35400
X132600Y33600
X75000Y33600
X17400Y33600
X150600Y31800
X121800Y31800
X64200Y31800
X35400Y31800
X6600Y31800
X154200Y30000
X125400Y30000
X67800Y30000
X39000Y30000
X114600Y28200
X57000Y28200
X28200Y28200
X147000Y26400
X118200Y26400
X31800Y26400
X3000Y26400
X165000Y24600
X136200Y24600
X107400Y24600
X78600Y24600
X139800Y22800
X111000Y22800
X82200Y22800
X53400Y22800
X24600Y22800
X157800Y21000
X129000Y21000
X3000Y12000
X165000Y10200
X136200Y10200
X107400Y10200
X21000Y10200
X168600Y8400
X139800Y8400
X111000Y8400
X53400Y8400
X24600Y8400
X157800Y6600
X129000Y6600
X100200Y6600
X71400Y6600
X42600Y6600
X13800Y6600
X161400Y4800
X103800Y4800
X75000Y4800
X46200Y4800
X17400Y4800
X150600Y3000
X121800Y3000
X64200Y3000
X35400Y3000
X6600Y3000
X154200Y1200
X10200Y1200
X39000Y1200
X67800Y1200
X125400Y1200
X31800Y12000
X60600Y12000
X118200Y12000
X147000Y12000
X57000Y13800
X114600Y13800
X143400Y13800
X10200Y15600
X39000Y15600
X67800Y15600
X125400Y15600
X6600Y17400
X35400Y17400
X121800Y17400
X150600Y17400
X17400Y19200
X46200Y19200
X103800Y19200
X132600Y19200
X13800Y21000
X42600Y21000
X100200Y21000
X89400Y40800
X28200Y42600
X39000Y44400
X67800Y44400
X121800Y46200
X103800Y48000
X71400Y49800
X100200Y49800
X157800Y49800
X168600Y51600
X21000Y53400
X49800Y53400
X107400Y53400
X165000Y53400
X60600Y55200
X89400Y55200
X147000Y55200
X57000Y57000
X10200Y58800
X125400Y58800
X64200Y60600
X93000Y60600
X121800Y60600
X150600Y60600
X75000Y62400
X103800Y62400
X132600Y62400
X161400Y62400
X13800Y64200
X157800Y64200
X53400Y66000
X82200Y66000
X111000Y66000
X139800Y66000
X168600Y66000
X49800Y67800
X78600Y67800
X3000Y69600
X31800Y69600
X60600Y69600
X89400Y69600
X57000Y71400
X85800Y71400
X10200Y73200
X39000Y73200
X67800Y73200
X35400Y75000
X64200Y75000
X46200Y76800
X75000Y76800
X42600Y78600
X71400Y78600
X53400Y80400
X82200Y80400
X49800Y82200
X78600Y82200
X31800Y84000
X60600Y84000
X28200Y85800
X57000Y85800
X85800Y85800
X10200Y87600
X39000Y87600
X67800Y87600
X35400Y89400
X64200Y89400
X75000Y91200
X13800Y93000
X85800Y107400
X89400Y105600
X60600Y105600
X21000Y103800
X82200Y102000
X53400Y102000
X24600Y102000
X71400Y100200
X42600Y100200
X13800Y100200
X75000Y98400
X64200Y96600
X35400Y96600
X67800Y94800
X10200Y94800
X85800Y93000
X28200Y93000
X75000Y40800
X150600Y39000
X121800Y39000
X93000Y39000
X64200Y39000
X35400Y39000
X154200Y37200
X125400Y37200
X67800Y37200
X143400Y35400
X114600Y35400
X85800Y35400
X57000Y35400
X28200Y35400
X118200Y33600
X31800Y33600
X3000Y33600
X165000Y31800
X136200Y31800
X107400Y31800
X78600Y31800
X21000Y31800
X168600Y30000
X139800Y30000
X111000Y30000
X24600Y30000
X157800Y28200
X129000Y28200
X71400Y28200
X42600Y28200
X132600Y26400
X103800Y26400
X75000Y26400
X46200Y26400
X150600Y24600
X121800Y24600
X93000Y24600
X6600Y24600
X154200Y22800
X125400Y22800
X96600Y22800
X39000Y22800
X10200Y22800
X143400Y21000
X114600Y21000
X17400Y12000
X150600Y10200
X121800Y10200
X6600Y10200
X125400Y8400
X67800Y8400
X39000Y8400
X10200Y8400
X143400Y6600
X114600Y6600
X57000Y6600
X28200Y6600
X60600Y4800
X31800Y4800
X3000Y4800
X165000Y3000
X136200Y3000
X107400Y3000
X78600Y3000
X49800Y3000
X21000Y3000
X168600Y1200
X139800Y1200
X24600Y1200
X53400Y1200
X111000Y1200
X46200Y12000
X132600Y12000
X161400Y12000
X13800Y13800
X42600Y13800
X129000Y13800
X53400Y15600
X111000Y15600
X139800Y15600
X21000Y17400
X49800Y17400
X78600Y17400
X107400Y17400
X136200Y17400
X3000Y19200
X31800Y19200
X60600Y19200
X118200Y19200
X147000Y19200
X28200Y21000
X57000Y21000
X85800Y21000
X103800Y40800
X132600Y40800
X157800Y42600
X53400Y44400
X82200Y44400
X139800Y44400
X168600Y44400
X107400Y46200
X165000Y46200
X31800Y48000
X57000Y49800
X114600Y49800
X143400Y49800
X96600Y51600
X125400Y51600
X64200Y53400
X93000Y53400
X150600Y53400
X75000Y55200
X42600Y57000
X71400Y57000
X24600Y58800
X53400Y58800
X111000Y58800
X139800Y58800
X168600Y58800
X49800Y60600
X78600Y60600
X107400Y60600
X136200Y60600
X165000Y60600
X89400Y62400
X118200Y62400
X147000Y62400
X39000Y66000
X67800Y66000
X96600Y66000
X154200Y66000
X6600Y67800
X35400Y67800
X64200Y67800
X46200Y69600
X75000Y69600
X13800Y71400
X42600Y71400
X71400Y71400
X53400Y73200
X82200Y73200
X21000Y75000
X49800Y75000
X78600Y75000
X31800Y76800
X60600Y76800
X89400Y76800
X28200Y78600
X57000Y78600
X85800Y78600
X39000Y80400
X67800Y80400
X6600Y82200
X64200Y82200
X46200Y84000
X75000Y84000
X13800Y85800
X71400Y85800
X24600Y87600
X53400Y87600
X82200Y87600
X21000Y89400
X78600Y89400
X31800Y91200
X60600Y91200
X89400Y91200
X71400Y109200
X13800Y109200
X82200Y107400
X78600Y105600
X21000Y105600
X31800Y103800
X3000Y103800
X85800Y102000
X57000Y102000
X67800Y100200
X39000Y100200
X64200Y98400
X75000Y96600
X17400Y96600
X71400Y94800
X42600Y94800
X13800Y94800
X82200Y93000
X53400Y93000
X64200Y40800
X35400Y40800
X103800Y39000
X75000Y39000
X17400Y39000
X157800Y37200
X129000Y37200
X100200Y37200
X71400Y37200
X168600Y35400
X139800Y35400
X111000Y35400
X82200Y35400
X24600Y35400
X165000Y33600
X136200Y33600
X107400Y33600
X78600Y33600
X21000Y33600
X147000Y31800
X118200Y31800
X60600Y31800
X31800Y31800
X3000Y31800
X143400Y30000
X114600Y30000
X85800Y30000
X28200Y30000
X154200Y28200
X125400Y28200
X67800Y28200
X39000Y28200
X10200Y28200
X150600Y26400
X121800Y26400
X35400Y26400
X6600Y26400
X132600Y24600
X103800Y24600
X75000Y24600
X129000Y22800
X100200Y22800
X71400Y22800
X42600Y22800
X13800Y22800
X139800Y21000
X111000Y21000
X6600Y12000
X161400Y10200
X132600Y10200
X17400Y10200
X157800Y8400
X129000Y8400
X100200Y8400
X71400Y8400
X13800Y8400
X168600Y6600
X111000Y6600
X53400Y6600
X24600Y6600
X165000Y4800
X107400Y4800
X78600Y4800
X49800Y4800
X21000Y4800
X147000Y3000
X118200Y3000
X60600Y3000
X31800Y3000
X3000Y3000
X143400Y1200
X28200Y1200
X57000Y1200
X114600Y1200
X35400Y12000
X93000Y12000
X121800Y12000
X10200Y13800
X39000Y13800
X125400Y13800
X154200Y13800
X28200Y15600
X57000Y15600
X114600Y15600
X143400Y15600
X3000Y17400
X31800Y17400
X60600Y17400
X118200Y17400
X147000Y17400
X49800Y19200
X78600Y19200
X107400Y19200
X136200Y19200
X24600Y21000
X53400Y21000
X93000Y40800
X154200Y42600
X57000Y44400
X143400Y44400
X3000Y46200
X118200Y46200
X107400Y48000
X165000Y48000
X53400Y49800
X168600Y49800
X100200Y51600
X46200Y53400
X75000Y53400
X103800Y53400
X132600Y53400
X64200Y55200
X93000Y55200
X150600Y55200
X67800Y57000
X96600Y57000
X57000Y58800
X143400Y58800
X31800Y60600
X60600Y60600
X89400Y60600
X118200Y60600
X147000Y60600
X107400Y62400
X136200Y62400
X165000Y62400
X168600Y64200
X42600Y66000
X71400Y66000
X100200Y66000
X129000Y66000
X157800Y66000
X46200Y67800
X75000Y67800
X35400Y69600
X64200Y69600
X10200Y71400
X39000Y71400
X67800Y71400
X28200Y73200
X57000Y73200
X85800Y73200
X60600Y75000
X89400Y75000
X21000Y76800
X49800Y76800
X78600Y76800
X53400Y78600
X82200Y78600
X42600Y80400
X71400Y80400
X17400Y82200
X46200Y82200
X75000Y82200
X6600Y84000
X35400Y84000
X64200Y84000
X10200Y85800
X67800Y85800
X28200Y87600
X57000Y87600
X85800Y87600
X31800Y89400
X60600Y89400
X89400Y89400
X21000Y91200
X49800Y91200
X78600Y91200
X24600Y93000
X85800Y109200
X39000Y107400
X64200Y105600
X35400Y105600
X6600Y105600
X46200Y103800
X17400Y103800
X71400Y102000
X42600Y102000
X13800Y102000
X82200Y100200
X53400Y100200
X24600Y100200
X78600Y98400
X49800Y98400
X89400Y96600
X31800Y96600
X85800Y94800
X57000Y94800
X28200Y94800
X67800Y93000
X39000Y93000
X78600Y40800
X49800Y40800
X21000Y40800
X147000Y39000
X118200Y39000
X89400Y39000
X60600Y39000
X31800Y39000
X3000Y39000
X85800Y37200
X57000Y37200
X154200Y35400
X125400Y35400
X67800Y35400
X39000Y35400
X150600Y33600
X121800Y33600
X35400Y33600
X132600Y31800
X103800Y31800
X46200Y31800
X17400Y31800
X157800Y30000
X129000Y30000
X100200Y30000
X71400Y30000
X42600Y30000
X168600Y28200
X139800Y28200
X111000Y28200
X24600Y28200
X165000Y26400
X136200Y26400
X107400Y26400
X49800Y26400
X21000Y26400
X118200Y24600
X60600Y24600
X3000Y24600
X143400Y22800
X114600Y22800
X85800Y22800
X57000Y22800
X28200Y22800
X154200Y21000
X125400Y21000
X21000Y12000
X147000Y10200
X118200Y10200
X3000Y10200
X143400Y8400
X114600Y8400
X57000Y8400
X28200Y8400
X125400Y6600
X67800Y6600
X39000Y6600
X10200Y6600
X64200Y4800
X6600Y4800
X161400Y3000
X132600Y3000
X103800Y3000
X75000Y3000
X46200Y3000
X17400Y3000
X157800Y1200
X13800Y1200
X42600Y1200
X71400Y1200
X100200Y1200
X129000Y1200
X49800Y12000
X107400Y12000
X136200Y12000
X165000Y12000
X24600Y13800
X53400Y13800
X111000Y13800
X139800Y13800
X168600Y13800
X13800Y15600
X42600Y15600
X129000Y15600
X17400Y17400
X46200Y17400
X75000Y17400
X103800Y17400
X132600Y17400
X6600Y19200
X35400Y19200
X64200Y19200
X121800Y19200
X150600Y19200
X10200Y21000
X39000Y21000
X107400Y40800
X136200Y40800
X165000Y40800
X139800Y42600
X168600Y42600
X71400Y44400
X100200Y44400
X129000Y44400
X157800Y44400
X103800Y46200
X35400Y48000
X67800Y49800
X96600Y49800
X154200Y49800
X85800Y51600
X114600Y51600
X143400Y51600
X31800Y53400
X60600Y53400
X89400Y53400
X147000Y53400
X21000Y55200
X78600Y55200
X165000Y55200
X53400Y57000
X168600Y57000
X13800Y58800
X42600Y58800
X71400Y58800
X157800Y58800
X17400Y60600
X46200Y60600
X75000Y60600
X103800Y60600
X132600Y60600
X161400Y60600
X93000Y62400
X121800Y62400
X154200Y64200
X28200Y66000
X57000Y66000
X85800Y66000
X114600Y66000
X143400Y66000
X3000Y67800
X31800Y67800
X60600Y67800
X89400Y67800
X49800Y69600
X78600Y69600
X24600Y71400
X53400Y71400
X82200Y71400
X13800Y73200
X42600Y73200
X71400Y73200
X46200Y75000
X75000Y75000
X35400Y76800
X64200Y76800
X10200Y78600
X39000Y78600
X67800Y78600
X28200Y80400
X57000Y80400
X85800Y80400
X31800Y82200
X60600Y82200
X21000Y84000
X49800Y84000
X78600Y84000
X24600Y85800
X53400Y85800
X82200Y85800
X42600Y87600
X71400Y87600
X17400Y89400
X75000Y89400
X35400Y91200
X64200Y91200
X10200Y93000
X78600Y109200
X75000Y107400
X17400Y107400
X42600Y105600
X13800Y105600
X39000Y103800
X64200Y102000
X35400Y102000
X89400Y100200
X60600Y100200
X31800Y100200
X3000Y100200
X85800Y98400
X57000Y98400
X28200Y98400
X82200Y96600
X24600Y96600
X78600Y94800
X49800Y94800
X75000Y93000
X57000Y40800
X28200Y40800
X168600Y39000
X139800Y39000
X82200Y39000
X53400Y39000
X24600Y39000
X165000Y37200
X136200Y37200
X107400Y37200
X78600Y37200
X132600Y35400
X103800Y35400
X75000Y35400
X17400Y35400
X157800Y33600
X129000Y33600
X42600Y33600
X13800Y33600
X154200Y31800
X125400Y31800
X67800Y31800
X39000Y31800
X121800Y30000
X64200Y30000
X35400Y30000
X147000Y28200
X118200Y28200
X31800Y28200
X3000Y28200
X143400Y26400
X114600Y26400
X28200Y26400
X168600Y24600
X139800Y24600
X111000Y24600
X165000Y22800
X136200Y22800
X107400Y22800
X78600Y22800
X49800Y22800
X21000Y22800
X161400Y21000
X132600Y21000
X103800Y21000
X168600Y10200
X139800Y10200
X111000Y10200
X24600Y10200
X165000Y8400
X136200Y8400
X78600Y8400
X49800Y8400
X21000Y8400
X161400Y6600
X132600Y6600
X103800Y6600
X75000Y6600
X46200Y6600
X17400Y6600
X157800Y4800
X100200Y4800
X71400Y4800
X42600Y4800
X13800Y4800
X154200Y3000
X125400Y3000
X67800Y3000
X10200Y3000
X150600Y1200
X6600Y1200
X35400Y1200
X64200Y1200
X121800Y1200
X57000Y12000
X114600Y12000
X143400Y12000
X3000Y13800
X31800Y13800
X60600Y13800
X118200Y13800
X6600Y15600
X35400Y15600
X64200Y15600
X121800Y15600
X150600Y15600
X10200Y17400
X39000Y17400
X125400Y17400
X13800Y19200
X42600Y19200
X100200Y19200
X129000Y19200
X17400Y21000
X46200Y21000
X85800Y40800
X3000Y42600
X147000Y42600
X35400Y44400
X64200Y44400
X93000Y44400
X150600Y44400
X125400Y46200
X154200Y46200
X42600Y48000
X100200Y48000
X46200Y49800
X75000Y49800
X103800Y49800
X78600Y51600
X107400Y51600
X136200Y51600
X165000Y51600
X24600Y53400
X53400Y53400
X168600Y53400
X28200Y55200
X57000Y55200
X85800Y55200
X143400Y55200
X60600Y57000
X64200Y58800
X121800Y58800
X150600Y58800
X10200Y60600
X67800Y60600
X96600Y60600
X125400Y60600
X154200Y60600
X71400Y62400
X100200Y62400
X157800Y62400
X161400Y64200
X49800Y66000
X78600Y66000
X136200Y66000
X165000Y66000
X53400Y67800
X82200Y67800
X28200Y69600
X57000Y69600
X85800Y69600
X3000Y71400
X60600Y71400
X89400Y71400
X6600Y73200
X35400Y73200
X64200Y73200
X39000Y75000
X67800Y75000
X13800Y76800
X42600Y76800
X71400Y76800
X17400Y78600
X46200Y78600
X75000Y78600
X49800Y80400
X78600Y80400
X24600Y82200
X53400Y82200
X82200Y82200
X28200Y84000
X57000Y84000
X85800Y84000
X31800Y85800
X60600Y85800
X89400Y85800
X35400Y87600
X64200Y87600
X10200Y89400
X39000Y89400
X67800Y89400
X13800Y91200
X71400Y91200
X17400Y93000
X89400Y107400
X31800Y107400
X85800Y105600
X57000Y105600
X53400Y103800
X78600Y102000
X49800Y102000
X21000Y102000
X75000Y100200
X17400Y100200
X71400Y98400
X42600Y98400
X67800Y96600
X39000Y96600
X10200Y96600
X64200Y94800
X35400Y94800
X89400Y93000
X60600Y93000
X31800Y93000
X71400Y40800
X42600Y40800
X154200Y39000
X125400Y39000
X67800Y39000
X39000Y39000
X150600Y37200
X121800Y37200
X93000Y37200
X64200Y37200
X147000Y35400
X118200Y35400
X89400Y35400
X60600Y35400
X31800Y35400
X3000Y35400
X143400Y33600
X114600Y33600
X85800Y33600
X28200Y33600
X168600Y31800
X111000Y31800
X24600Y31800
X165000Y30000
X136200Y30000
X107400Y30000
X78600Y30000
X21000Y30000
X132600Y28200
X103800Y28200
X75000Y28200
X46200Y28200
X17400Y28200
X157800Y26400
X129000Y26400
X100200Y26400
X71400Y26400
X42600Y26400
X154200Y24600
X125400Y24600
X96600Y24600
X67800Y24600
X10200Y24600
X150600Y22800
X121800Y22800
X93000Y22800
X35400Y22800
X6600Y22800
X147000Y21000
X118200Y21000
X13800Y12000
X125400Y10200
X10200Y10200
X150600Y8400
X121800Y8400
X64200Y8400
X35400Y8400
X6600Y8400
X118200Y6600
X60600Y6600
X31800Y6600
X3000Y6600
X143400Y4800
X57000Y4800
X28200Y4800
X168600Y3000
X139800Y3000
X111000Y3000
X53400Y3000
X24600Y3000
X165000Y1200
X136200Y1200
X21000Y1200
X49800Y1200
X78600Y1200
X107400Y1200
X42600Y12000
X71400Y12000
X129000Y12000
X157800Y12000
X17400Y13800
X46200Y13800
X103800Y13800
X132600Y13800
X161400Y13800
X21000Y15600
X49800Y15600
X107400Y15600
X136200Y15600
X165000Y15600
X53400Y17400
X82200Y17400
X111000Y17400
X139800Y17400
X28200Y19200
X57000Y19200
X114600Y19200
X143400Y19200
X3000Y21000
X31800Y21000
X89400Y21000
X100200Y40800
X157800Y40800
X17400Y42600
X132600Y42600
X49800Y44400
X78600Y44400
X107400Y44400
X165000Y44400
X168600Y46200
X28200Y48000
X114600Y48000
X60600Y49800
X67800Y53400
X96600Y53400
X46200Y57000
X75000Y57000
X78600Y58800
X136200Y58800
X165000Y58800
X24600Y60600
X53400Y60600
X82200Y60600
X139800Y60600
X168600Y60600
X114600Y62400
X143400Y62400
X35400Y66000
X64200Y66000
X93000Y66000
X150600Y66000
X10200Y67800
X39000Y67800
X67800Y67800
X13800Y69600
X42600Y69600
X71400Y69600
X46200Y71400
X75000Y71400
X21000Y73200
X49800Y73200
X78600Y73200
X24600Y75000
X53400Y75000
X82200Y75000
X28200Y76800
X57000Y76800
X85800Y76800
X60600Y78600
X89400Y78600
X6600Y80400
X35400Y80400
X64200Y80400
X67800Y82200
X42600Y84000
X71400Y84000
X46200Y85800
X75000Y85800
X21000Y87600
X78600Y87600
X24600Y89400
X82200Y89400
X28200Y91200
X57000Y91200
X85800Y91200
X87600Y109200
X76800Y107400
X80400Y105600
X69600Y103800
X40800Y103800
X73200Y102000
X44400Y102000
X91200Y100200
X62400Y100200
X4800Y100200
X66000Y98400
X37200Y98400
X84000Y96600
X55200Y96600
X26400Y96600
X30000Y94800
X76800Y93000
X48000Y93000
X66000Y40800
X37200Y40800
X8400Y40800
X112800Y39000
X84000Y39000
X55200Y39000
X145200Y37200
X58800Y37200
X1200Y37200
X163200Y35400
X134400Y35400
X105600Y35400
X76800Y35400
X19200Y35400
X109200Y33600
X22800Y33600
X156000Y31800
X127200Y31800
X69600Y31800
X40800Y31800
X159600Y30000
X130800Y30000
X102000Y30000
X73200Y30000
X44400Y30000
X15600Y30000
X148800Y28200
X120000Y28200
X91200Y28200
X33600Y28200
X4800Y28200
X123600Y26400
X66000Y26400
X37200Y26400
X8400Y26400
X141600Y24600
X112800Y24600
X145200Y22800
X116400Y22800
X87600Y22800
X30000Y22800
X1200Y22800
X134400Y21000
X105600Y21000
X8400Y12000
X141600Y10200
X112800Y10200
X26400Y10200
X145200Y8400
X116400Y8400
X58800Y8400
X30000Y8400
X1200Y8400
X163200Y6600
X134400Y6600
X105600Y6600
X76800Y6600
X48000Y6600
X19200Y6600
X166800Y4800
X51600Y4800
X22800Y4800
X156000Y3000
X127200Y3000
X69600Y3000
X40800Y3000
X12000Y3000
X159600Y1200
X15600Y1200
X44400Y1200
X73200Y1200
X102000Y1200
X130800Y1200
X37200Y12000
X94800Y12000
X123600Y12000
X4800Y13800
X33600Y13800
X62400Y13800
X120000Y13800
X15600Y15600
X44400Y15600
X102000Y15600
X130800Y15600
X12000Y17400
X40800Y17400
X127200Y17400
X51600Y19200
X80400Y19200
X109200Y19200
X138000Y19200
X48000Y21000
X94800Y40800
X4800Y42600
X15600Y44400
X44400Y44400
X73200Y44400
X102000Y44400
X130800Y44400
X159600Y44400
X98400Y46200
X127200Y46200
X109200Y48000
X138000Y48000
X48000Y49800
X105600Y49800
X87600Y51600
X116400Y51600
X145200Y51600
X55200Y53400
X84000Y53400
X112800Y53400
X141600Y53400
X66000Y55200
X94800Y55200
X152400Y55200
X62400Y57000
X15600Y58800
X44400Y58800
X73200Y58800
X130800Y58800
X159600Y58800
X69600Y60600
X98400Y60600
X127200Y60600
X156000Y60600
X22800Y62400
X138000Y62400
X166800Y62400
X163200Y64200
X30000Y66000
X58800Y66000
X87600Y66000
X116400Y66000
X145200Y66000
X55200Y67800
X84000Y67800
X37200Y69600
X66000Y69600
X33600Y71400
X62400Y71400
X91200Y71400
X15600Y73200
X73200Y73200
X12000Y75000
X40800Y75000
X69600Y75000
X22800Y76800
X51600Y76800
X80400Y76800
X48000Y78600
X76800Y78600
X1200Y80400
X30000Y80400
X58800Y80400
X87600Y80400
X26400Y82200
X55200Y82200
X84000Y82200
X66000Y84000
X4800Y85800
X33600Y85800
X62400Y85800
X91200Y85800
X73200Y87600
X40800Y89400
X69600Y89400
X22800Y91200
X51600Y91200
X80400Y91200
X73200Y109200
X15600Y109200
X91200Y107400
X4800Y107400
X66000Y105600
X37200Y105600
X55200Y103800
X26400Y103800
X30000Y102000
X76800Y100200
X48000Y100200
X19200Y100200
X80400Y98400
X51600Y98400
X69600Y96600
X40800Y96600
X12000Y96600
X73200Y94800
X44400Y94800
X91200Y93000
X62400Y93000
X33600Y93000
X80400Y40800
X51600Y40800
X22800Y40800
X156000Y39000
X127200Y39000
X98400Y39000
X69600Y39000
X40800Y39000
X159600Y37200
X130800Y37200
X102000Y37200
X73200Y37200
X148800Y35400
X120000Y35400
X62400Y35400
X33600Y35400
X4800Y35400
X123600Y33600
X37200Y33600
X141600Y31800
X112800Y31800
X84000Y31800
X26400Y31800
X145200Y30000
X116400Y30000
X30000Y30000
X1200Y30000
X163200Y28200
X134400Y28200
X105600Y28200
X76800Y28200
X48000Y28200
X19200Y28200
X138000Y26400
X109200Y26400
X80400Y26400
X51600Y26400
X22800Y26400
X127200Y24600
X69600Y24600
X12000Y24600
X159600Y22800
X130800Y22800
X102000Y22800
X73200Y22800
X44400Y22800
X15600Y22800
X148800Y21000
X120000Y21000
X22800Y12000
X156000Y10200
X127200Y10200
X12000Y10200
X159600Y8400
X130800Y8400
X102000Y8400
X73200Y8400
X44400Y8400
X15600Y8400
X120000Y6600
X62400Y6600
X4800Y6600
X66000Y4800
X37200Y4800
X8400Y4800
X141600Y3000
X112800Y3000
X55200Y3000
X26400Y3000
X145200Y1200
X1200Y1200
X30000Y1200
X58800Y1200
X116400Y1200
X51600Y12000
X109200Y12000
X138000Y12000
X166800Y12000
X19200Y13800
X48000Y13800
X105600Y13800
X134400Y13800
X163200Y13800
X1200Y15600
X30000Y15600
X58800Y15600
X116400Y15600
X145200Y15600
X26400Y17400
X55200Y17400
X84000Y17400
X112800Y17400
X141600Y17400
X8400Y19200
X37200Y19200
X66000Y19200
X123600Y19200
X4800Y21000
X33600Y21000
X62400Y21000
X109200Y40800
X138000Y40800
X134400Y42600
X163200Y42600
X1200Y44400
X30000Y44400
X58800Y44400
X145200Y44400
X112800Y46200
X37200Y48000
X62400Y49800
X15600Y51600
X102000Y51600
X130800Y51600
X40800Y53400
X69600Y53400
X98400Y53400
X22800Y55200
X19200Y57000
X48000Y57000
X30000Y58800
X58800Y58800
X116400Y58800
X145200Y58800
X55200Y60600
X141600Y60600
X8400Y62400
X66000Y62400
X94800Y62400
X123600Y62400
X152400Y62400
X73200Y66000
X102000Y66000
X130800Y66000
X159600Y66000
X12000Y67800
X40800Y67800
X69600Y67800
X51600Y69600
X80400Y69600
X48000Y71400
X76800Y71400
X1200Y73200
X58800Y73200
X87600Y73200
X55200Y75000
X84000Y75000
X8400Y76800
X37200Y76800
X66000Y76800
X33600Y78600
X62400Y78600
X91200Y78600
X15600Y80400
X73200Y80400
X40800Y82200
X69600Y82200
X22800Y84000
X51600Y84000
X80400Y84000
X19200Y85800
X48000Y85800
X76800Y85800
X1200Y87600
X30000Y87600
X58800Y87600
X26400Y89400
X55200Y89400
X84000Y89400
X37200Y91200
X66000Y91200
X80400Y109200
X84000Y107400
X55200Y107400
X87600Y105600
X30000Y105600
X91200Y103800
X33600Y103800
X37200Y102000
X8400Y102000
X69600Y100200
X40800Y100200
X73200Y98400
X44400Y98400
X76800Y96600
X48000Y96600
X19200Y96600
X80400Y94800
X22800Y94800
X84000Y93000
X55200Y93000
X73200Y40800
X44400Y40800
X15600Y40800
X163200Y39000
X134400Y39000
X105600Y39000
X19200Y39000
X138000Y37200
X109200Y37200
X80400Y37200
X141600Y35400
X112800Y35400
X84000Y35400
X26400Y35400
X145200Y33600
X116400Y33600
X30000Y33600
X1200Y33600
X120000Y31800
X62400Y31800
X33600Y31800
X123600Y30000
X94800Y30000
X66000Y30000
X37200Y30000
X156000Y28200
X127200Y28200
X69600Y28200
X40800Y28200
X159600Y26400
X130800Y26400
X102000Y26400
X73200Y26400
X44400Y26400
X163200Y24600
X134400Y24600
X105600Y24600
X76800Y24600
X138000Y22800
X109200Y22800
X51600Y22800
X22800Y22800
X141600Y21000
X112800Y21000
X15600Y12000
X163200Y10200
X134400Y10200
X19200Y10200
X166800Y8400
X138000Y8400
X109200Y8400
X51600Y8400
X22800Y8400
X141600Y6600
X112800Y6600
X55200Y6600
X26400Y6600
X145200Y4800
X58800Y4800
X30000Y4800
X1200Y4800
X148800Y3000
X120000Y3000
X62400Y3000
X33600Y3000
X4800Y3000
X152400Y1200
X8400Y1200
X66000Y1200
X123600Y1200
X44400Y12000
X73200Y12000
X130800Y12000
X159600Y12000
X12000Y13800
X40800Y13800
X98400Y13800
X127200Y13800
X8400Y15600
X37200Y15600
X123600Y15600
X4800Y17400
X33600Y17400
X62400Y17400
X120000Y17400
X148800Y17400
X1200Y19200
X30000Y19200
X58800Y19200
X116400Y19200
X145200Y19200
X26400Y21000
X55200Y21000
X102000Y40800
X159600Y40800
X12000Y42600
X156000Y42600
X37200Y44400
X66000Y44400
X94800Y44400
X152400Y44400
X4800Y46200
X30000Y48000
X55200Y49800
X84000Y49800
X112800Y49800
X141600Y49800
X80400Y51600
X109200Y51600
X138000Y51600
X19200Y53400
X48000Y53400
X105600Y53400
X73200Y55200
X159600Y55200
X8400Y58800
X66000Y58800
X123600Y58800
X152400Y58800
X62400Y60600
X91200Y60600
X148800Y60600
X87600Y62400
X116400Y62400
X145200Y62400
X51600Y66000
X80400Y66000
X109200Y66000
X138000Y66000
X166800Y66000
X48000Y67800
X76800Y67800
X15600Y69600
X73200Y69600
X12000Y71400
X40800Y71400
X69600Y71400
X37200Y73200
X66000Y73200
X33600Y75000
X62400Y75000
X91200Y75000
X1200Y76800
X58800Y76800
X87600Y76800
X26400Y78600
X55200Y78600
X84000Y78600
X51600Y80400
X80400Y80400
X19200Y82200
X48000Y82200
X76800Y82200
X73200Y84000
X12000Y85800
X40800Y85800
X69600Y85800
X8400Y87600
X37200Y87600
X66000Y87600
X33600Y89400
X62400Y89400
X91200Y89400
X1200Y91200
X30000Y91200
X58800Y91200
X26400Y93000
X40800Y107400
X12000Y107400
X73200Y105600
X44400Y105600
X15600Y105600
X48000Y103800
X19200Y103800
X80400Y102000
X51600Y102000
X22800Y102000
X84000Y100200
X55200Y100200
X58800Y98400
X30000Y98400
X91200Y96600
X62400Y96600
X33600Y96600
X4800Y96600
X66000Y94800
X37200Y94800
X69600Y93000
X58800Y40800
X30000Y40800
X1200Y40800
X148800Y39000
X91200Y39000
X62400Y39000
X4800Y39000
X123600Y37200
X94800Y37200
X66000Y37200
X156000Y35400
X127200Y35400
X98400Y35400
X69600Y35400
X40800Y35400
X159600Y33600
X130800Y33600
X44400Y33600
X15600Y33600
X163200Y31800
X134400Y31800
X105600Y31800
X76800Y31800
X19200Y31800
X138000Y30000
X109200Y30000
X80400Y30000
X22800Y30000
X141600Y28200
X112800Y28200
X55200Y28200
X26400Y28200
X116400Y26400
X58800Y26400
X30000Y26400
X1200Y26400
X148800Y24600
X120000Y24600
X91200Y24600
X4800Y24600
X123600Y22800
X94800Y22800
X37200Y22800
X8400Y22800
X156000Y21000
X127200Y21000
X1200Y12000
X120000Y10200
X4800Y10200
X123600Y8400
X66000Y8400
X37200Y8400
X8400Y8400
X156000Y6600
X127200Y6600
X69600Y6600
X12000Y6600
X159600Y4800
X102000Y4800
X73200Y4800
X44400Y4800
X15600Y4800
X163200Y3000
X134400Y3000
X105600Y3000
X76800Y3000
X48000Y3000
X19200Y3000
X166800Y1200
X138000Y1200
X22800Y1200
X51600Y1200
X109200Y1200
X58800Y12000
X116400Y12000
X55200Y13800
X112800Y13800
X141600Y13800
X22800Y15600
X51600Y15600
X109200Y15600
X138000Y15600
X166800Y15600
X19200Y17400
X48000Y17400
X76800Y17400
X105600Y17400
X134400Y17400
X15600Y19200
X44400Y19200
X102000Y19200
X130800Y19200
X12000Y21000
X40800Y21000
X87600Y40800
X141600Y42600
X51600Y44400
X80400Y44400
X109200Y44400
X138000Y44400
X105600Y46200
X163200Y46200
X102000Y48000
X159600Y48000
X69600Y49800
X98400Y49800
X156000Y49800
X8400Y51600
X94800Y51600
X123600Y51600
X33600Y53400
X62400Y53400
X120000Y53400
X148800Y53400
X58800Y55200
X87600Y55200
X145200Y55200
X55200Y57000
X51600Y58800
X80400Y58800
X109200Y58800
X138000Y58800
X105600Y60600
X134400Y60600
X73200Y62400
X102000Y62400
X130800Y62400
X159600Y62400
X156000Y64200
X37200Y66000
X66000Y66000
X94800Y66000
X152400Y66000
X62400Y67800
X91200Y67800
X1200Y69600
X30000Y69600
X58800Y69600
X69871Y14005
X26400Y71400
X55200Y71400
X84000Y71400
X22800Y73200
X51600Y73200
X80400Y73200
X48000Y75000
X76800Y75000
X73200Y76800
X40800Y78600
X69600Y78600
X8400Y80400
X66000Y80400
X4800Y82200
X33600Y82200
X62400Y82200
X1200Y84000
X30000Y84000
X58800Y84000
X26400Y85800
X55200Y85800
X84000Y85800
X22800Y87600
X51600Y87600
X80400Y87600
X19200Y89400
X48000Y89400
X76800Y89400
X73200Y91200
X12000Y93000
X84000Y109200
X80400Y107400
X76800Y105600
X48000Y105600
X19200Y105600
X44400Y103800
X69600Y102000
X40800Y102000
X12000Y102000
X66000Y100200
X37200Y100200
X91200Y98400
X33600Y98400
X4800Y98400
X58800Y96600
X30000Y96600
X84000Y94800
X55200Y94800
X26400Y94800
X80400Y93000
X51600Y93000
X62400Y40800
X33600Y40800
X4800Y40800
X145200Y39000
X116400Y39000
X87600Y39000
X58800Y39000
X30000Y39000
X1200Y39000
X141600Y37200
X84000Y37200
X55200Y37200
X138000Y35400
X109200Y35400
X80400Y35400
X22800Y35400
X163200Y33600
X134400Y33600
X105600Y33600
X76800Y33600
X19200Y33600
X159600Y31800
X130800Y31800
X73200Y31800
X44400Y31800
X15600Y31800
X156000Y30000
X127200Y30000
X69600Y30000
X40800Y30000
X123600Y28200
X94800Y28200
X66000Y28200
X37200Y28200
X8400Y28200
X148800Y26400
X120000Y26400
X33600Y26400
X4800Y26400
X145200Y24600
X116400Y24600
X87600Y24600
X58800Y24600
X1200Y24600
X141600Y22800
X112800Y22800
X55200Y22800
X26400Y22800
X138000Y21000
X109200Y21000
X4800Y12000
X145200Y10200
X116400Y10200
X1200Y10200
X112800Y8400
X55200Y8400
X26400Y8400
X166800Y6600
X138000Y6600
X51600Y6600
X22800Y6600
X163200Y4800
X105600Y4800
X76800Y4800
X48000Y4800
X19200Y4800
X159600Y3000
X130800Y3000
X102000Y3000
X73200Y3000
X44400Y3000
X15600Y3000
X156000Y1200
X12000Y1200
X40800Y1200
X69600Y1200
X127200Y1200
X33600Y12000
X62400Y12000
X120000Y12000
X8400Y13800
X37200Y13800
X123600Y13800
X12000Y15600
X40800Y15600
X69600Y15600
X127200Y15600
X156000Y15600
X15600Y17400
X44400Y17400
X102000Y17400
X130800Y17400
X19200Y19200
X48000Y19200
X76800Y19200
X105600Y19200
X134400Y19200
X22800Y21000
X51600Y21000
X91200Y40800
X120000Y40800
X40800Y44400
X69600Y44400
X98400Y44400
X127200Y44400
X156000Y44400
X102000Y46200
X130800Y46200
X159600Y46200
X105600Y48000
X51600Y49800
X80400Y49800
X109200Y49800
X84000Y51600
X112800Y51600
X141600Y51600
X30000Y53400
X58800Y53400
X87600Y53400
X116400Y53400
X145200Y53400
X62400Y55200
X148800Y55200
X8400Y57000
X66000Y57000
X94800Y57000
X69600Y58800
X127200Y58800
X156000Y58800
X44400Y60600
X73200Y60600
X102000Y60600
X130800Y60600
X159600Y60600
X105600Y62400
X134400Y62400
X163200Y62400
X166800Y64200
X55200Y66000
X84000Y66000
X112800Y66000
X141600Y66000
X1200Y67800
X30000Y67800
X58800Y67800
X87600Y67800
X62400Y69600
X91200Y69600
X37200Y71400
X66000Y71400
X12000Y73200
X40800Y73200
X69600Y73200
X73200Y75000
X19200Y76800
X48000Y76800
X76800Y76800
X22800Y78600
X51600Y78600
X80400Y78600
X26400Y80400
X55200Y80400
X84000Y80400
X30000Y82200
X58800Y82200
X87600Y82200
X4800Y84000
X33600Y84000
X62400Y84000
X91200Y84000
X8400Y85800
X37200Y85800
X66000Y85800
X12000Y87600
X69600Y87600
X73200Y89400
X19200Y91200
X76800Y91200
X22800Y93000
X69600Y109200
X37200Y107400
X8400Y107400
X91200Y105600
X33600Y105600
X4800Y105600
X58800Y103800
X84000Y102000
X55200Y102000
X80400Y100200
X51600Y100200
X22800Y100200
X76800Y98400
X48000Y98400
X73200Y96600
X44400Y96600
X15600Y96600
X69600Y94800
X40800Y94800
X12000Y94800
X66000Y93000
X37200Y93000
X48000Y40800
X19200Y40800
X159600Y39000
X130800Y39000
X102000Y39000
X73200Y39000
X44400Y39000
X156000Y37200
X127200Y37200
X98400Y37200
X69600Y37200
X123600Y35400
X94800Y35400
X66000Y35400
X37200Y35400
X148800Y33600
X120000Y33600
X33600Y33600
X4800Y33600
X145200Y31800
X116400Y31800
X30000Y31800
X1200Y31800
X112800Y30000
X26400Y30000
X138000Y28200
X109200Y28200
X51600Y28200
X22800Y28200
X163200Y26400
X134400Y26400
X105600Y26400
X76800Y26400
X48000Y26400
X19200Y26400
X159600Y24600
X130800Y24600
X102000Y24600
X73200Y24600
X156000Y22800
X127200Y22800
X69600Y22800
X40800Y22800
X12000Y22800
X123600Y21000
X19200Y12000
X159600Y10200
X130800Y10200
X102000Y10200
X15600Y10200
X156000Y8400
X127200Y8400
X69600Y8400
X40800Y8400
X12000Y8400
X123600Y6600
X66000Y6600
X37200Y6600
X8400Y6600
X62400Y4800
X33600Y4800
X4800Y4800
X145200Y3000
X116400Y3000
X58800Y3000
X30000Y3000
X1200Y3000
X141600Y1200
X26400Y1200
X55200Y1200
X112800Y1200
X48000Y12000
X105600Y12000
X134400Y12000
X163200Y12000
X22800Y13800
X51600Y13800
X109200Y13800
X138000Y13800
X166800Y13800
X55200Y15600
X112800Y15600
X141600Y15600
X1200Y17400
X30000Y17400
X58800Y17400
X116400Y17400
X145200Y17400
X4800Y19200
X33600Y19200
X120000Y19200
X148800Y19200
X8400Y21000
X37200Y21000
X94800Y21000
X105600Y40800
X134400Y40800
X163200Y40800
X22800Y42600
X55200Y44400
X84000Y44400
X141600Y44400
X1200Y46200
X33600Y48000
X120000Y48000
X66000Y49800
X94800Y49800
X98400Y51600
X44400Y53400
X102000Y53400
X19200Y55200
X55200Y58800
X141600Y58800
X30000Y60600
X58800Y60600
X87600Y60600
X116400Y60600
X145200Y60600
X91200Y62400
X148800Y62400
X152400Y64200
X40800Y66000
X69600Y66000
X98400Y66000
X127200Y66000
X156000Y66000
X73200Y67800
X48000Y69600
X76800Y69600
X51600Y71400
X80400Y71400
X26400Y73200
X55200Y73200
X84000Y73200
X1200Y75000
X30000Y75000
X58800Y75000
X87600Y75000
X4800Y76800
X62400Y76800
X91200Y76800
X37200Y78600
X66000Y78600
X87600Y69600
X69600Y80400
X73200Y82200
X48000Y84000
X76800Y84000
X22800Y85800
X51600Y85800
X80400Y85800
X26400Y87600
X55200Y87600
X84000Y87600
X1200Y89400
X30000Y89400
X58800Y89400
X33600Y91200
X62400Y91200
X91200Y91200
X91200Y109200
X73200Y107400
X15600Y107400
X40800Y105600
X12000Y105600
X22800Y103800
X76800Y102000
X19200Y102000
X87600Y100200
X58800Y100200
X30000Y100200
X84000Y98400
X26400Y98400
X66000Y96600
X91200Y94800
X62400Y94800
X33600Y94800
X73200Y93000
X44400Y93000
X55200Y40800
X123600Y39000
X94800Y39000
X66000Y39000
X37200Y39000
X8400Y39000
X148800Y37200
X120000Y37200
X62400Y37200
X4800Y37200
X159600Y35400
X130800Y35400
X102000Y35400
X73200Y35400
X15600Y35400
X156000Y33600
X127200Y33600
X40800Y33600
X12000Y33600
X138000Y31800
X109200Y31800
X80400Y31800
X22800Y31800
X163200Y30000
X134400Y30000
X105600Y30000
X48000Y30000
X19200Y30000
X145200Y28200
X116400Y28200
X30000Y28200
X1200Y28200
X141600Y26400
X112800Y26400
X26400Y26400
X123600Y24600
X94800Y24600
X8400Y24600
X120000Y22800
X62400Y22800
X33600Y22800
X4800Y22800
X130800Y21000
X102000Y21000
X123600Y10200
X8400Y10200
X120000Y8400
X62400Y8400
X33600Y8400
X4800Y8400
X159600Y6600
X130800Y6600
X102000Y6600
X73200Y6600
X44400Y6600
X15600Y6600
X156000Y4800
X69600Y4800
X40800Y4800
X12000Y4800
X166800Y3000
X138000Y3000
X51600Y3000
X22800Y3000
X163200Y1200
X19200Y1200
X48000Y1200
X76800Y1200
X105600Y1200
X134400Y1200
X26400Y12000
X55200Y12000
X112800Y12000
X141600Y12000
X1200Y13800
X30000Y13800
X58800Y13800
X87600Y13800
X116400Y13800
X145200Y13800
X19200Y15600
X48000Y15600
X105600Y15600
X134400Y15600
X163200Y15600
X51600Y17400
X80400Y17400
X109200Y17400
X138000Y17400
X166800Y17400
X12000Y19200
X40800Y19200
X127200Y19200
X15600Y21000
X44400Y21000
X84000Y40800
X141600Y40800
X1200Y42600
X19200Y44400
X48000Y44400
X105600Y44400
X134400Y44400
X163200Y44400
X109200Y46200
X40800Y48000
X98400Y48000
X156000Y48000
X44400Y49800
X73200Y49800
X102000Y49800
X120000Y51600
X8400Y53400
X66000Y53400
X55200Y55200
X84000Y55200
X141600Y55200
X58800Y57000
X48000Y58800
X134400Y58800
X22800Y60600
X51600Y60600
X109200Y60600
X138000Y60600
X69600Y62400
X98400Y62400
X127200Y62400
X156000Y62400
X15600Y64200
X159600Y64200
X62400Y66000
X91200Y66000
X148800Y66000
X37200Y67800
X66000Y67800
X55200Y69600
X84000Y69600
X1200Y71400
X30000Y71400
X58800Y71400
X87600Y71400
X48000Y73200
X76800Y73200
X22800Y75000
X51600Y75000
X80400Y75000
X12000Y76800
X40800Y76800
X69600Y76800
X15600Y78600
X73200Y78600
X4800Y80400
X62400Y80400
X8400Y82200
X37200Y82200
X66000Y82200
X26400Y84000
X55200Y84000
X84000Y84000
X1200Y85800
X30000Y85800
X58800Y85800
X19200Y87600
X48000Y87600
X76800Y87600
X22800Y89400
X80400Y89400
X12000Y91200
X40800Y91200
X69600Y91200
X76800Y109200
X19200Y109200
X87600Y107400
X58800Y107400
X30000Y107400
X84000Y105600
X55200Y105600
X26400Y105600
X37200Y103800
X8400Y103800
X91200Y102000
X62400Y102000
X33600Y102000
X4800Y102000
X73200Y100200
X44400Y100200
X69600Y98400
X40800Y98400
X12000Y98400
X80400Y96600
X51600Y96600
X76800Y94800
X48000Y94800
X19200Y94800
X58800Y93000
X30000Y93000
X69600Y40800
X138000Y39000
X109200Y39000
X80400Y39000
X51600Y39000
X22800Y39000
X163200Y37200
X105600Y37200
X116400Y35400
X87600Y35400
X58800Y35400
X30000Y35400
X1200Y35400
X141600Y33600
X112800Y33600
X84000Y33600
X26400Y33600
X123600Y31800
X94800Y31800
X66000Y31800
X37200Y31800
X148800Y30000
X120000Y30000
X62400Y30000
X33600Y30000
X4800Y30000
X159600Y28200
X130800Y28200
X73200Y28200
X44400Y28200
X156000Y26400
X127200Y26400
X98400Y26400
X69600Y26400
X40800Y26400
X12000Y26400
X138000Y24600
X109200Y24600
X80400Y24600
X163200Y22800
X134400Y22800
X105600Y22800
X76800Y22800
X48000Y22800
X145200Y21000
X116400Y21000
X12000Y12000
X166800Y10200
X138000Y10200
X109200Y10200
X22800Y10200
X163200Y8400
X134400Y8400
X76800Y8400
X48000Y8400
X19200Y8400
X145200Y6600
X116400Y6600
X58800Y6600
X30000Y6600
X1200Y6600
X141600Y4800
X55200Y4800
X26400Y4800
X152400Y3000
X123600Y3000
X66000Y3000
X8400Y3000
X148800Y1200
X4800Y1200
X33600Y1200
X62400Y1200
X120000Y1200
X40800Y12000
X127200Y12000
X15600Y13800
X44400Y13800
X130800Y13800
X159600Y13800
X4800Y15600
X33600Y15600
X62400Y15600
X120000Y15600
X8400Y17400
X37200Y17400
X66000Y17400
X123600Y17400
X26400Y19200
X55200Y19200
X84000Y19200
X112800Y19200
X141600Y19200
X1200Y21000
X30000Y21000
X58800Y21000
X87600Y21000
X98400Y40800
X127200Y40800
X156000Y40800
X159600Y42600
X4800Y44400
X33600Y44400
X62400Y44400
X91200Y44400
X123600Y46200
X152400Y46200
X112800Y48000
X58800Y49800
X116400Y49800
X105600Y51600
X134400Y51600
X22800Y53400
X51600Y53400
X80400Y53400
X109200Y53400
X69600Y55200
X15600Y57000
X44400Y57000
X73200Y57000
X62400Y58800
X148800Y58800
X8400Y60600
X94800Y60600
X123600Y60600
X112800Y62400
X141600Y62400
X48000Y66000
X134400Y66000
X163200Y66000
X51600Y67800
X80400Y67800
X12000Y69600
X40800Y69600
X69600Y69600
X15600Y71400
X73200Y71400
X33600Y73200
X62400Y73200
X91200Y73200
X37200Y75000
X66000Y75000
X55200Y76800
X84000Y76800
X1200Y78600
X30000Y78600
X58800Y78600
X87600Y78600
X19200Y80400
X48000Y80400
X76800Y80400
X22800Y82200
X51600Y82200
X80400Y82200
X12000Y84000
X69600Y84000
X73200Y85800
X33600Y87600
X62400Y87600
X91200Y87600
X37200Y89400
X66000Y89400
X26400Y91200
X84000Y91200
X1200Y93000
X71564Y16467
X40800Y80400
M30